<svg version="1.1" xmlns="http://www.w3.org/2000/svg" xmlns:xlink="http://www.w3.org/1999/xlink" width="373.08928" height="108.31522" viewBox="0,0,373.08928,108.31522"><g transform="translate(-53.45536,-125.84239)"><g data-paper-data="{&quot;isPaintingLayer&quot;:true}" fill-rule="nonzero" stroke="#000000" stroke-width="2" stroke-linecap="butt" stroke-linejoin="miter" stroke-miterlimit="10" stroke-dasharray="" stroke-dashoffset="0" style="mix-blend-mode: normal"><path d="M377.68748,184.88033l-1.14286,-30.85714c0,0 5.63352,5.5712 6.80036,11.35355c0.63962,3.16967 0.77107,19.5036 0.77107,19.5036z" fill="#af5218"/><path d="M280.25889,157.02319c0,0 -4,-4.04082 -4,-6c0,-1.46939 4,-4.71428 4,-4.71428c0,0 16.11124,-1.71429 24.28572,-1.71429c8.43632,0 25.57143,1.71429 25.57143,1.71429c0,0 1.85714,3.44809 1.85714,5.14285c0,1.86107 -1.85714,5.57143 -1.85714,5.57143c0,0 -15.73379,1.85714 -23.85714,1.85714c-8.48033,0 -26,-1.85714 -26,-1.85714z" fill="#af5218"/><path d="M239.63371,179.59646l25.56074,0.3295c0,0 2.10487,3.0481 2.08853,4.31524c-0.02221,1.7235 -2.2097,5.08451 -2.2097,5.08451l-25.56074,-0.3295c0,0 -2.43333,-3.1573 -2.4141,-4.64931c0.021,-1.62917 2.53527,-4.75045 2.53527,-4.75045z" fill="#ffffff"/><path d="M233.77657,163.45361l25.56074,0.3295c0,0 2.10487,3.04809 2.08854,4.31524c-0.02222,1.7235 -2.20971,5.08452 -2.20971,5.08452l-25.56074,-0.3295c0,0 -2.43333,-3.1573 -2.4141,-4.64931c0.021,-1.62917 2.53527,-4.75045 2.53527,-4.75045z" fill="#ffffff"/><path d="M235.77657,144.31075l25.56074,0.32949c0,0 2.10487,3.0481 2.08854,4.31524c-0.02222,1.7235 -2.20971,5.08452 -2.20971,5.08452l-25.56074,-0.3295c0,0 -2.43333,-3.1573 -2.4141,-4.64931c0.021,-1.62917 2.53527,-4.75044 2.53527,-4.75044z" fill="#ffffff"/><path d="M127.95536,187.34239v-33.5h8.5v33.5z" fill="#66aeff"/><path d="M55.20536,163.84239v-37h12v37z" fill="#ff6666"/><path d="M92.70536,169.96739c0,10.70051 -8.56256,19.375 -19.125,19.375c-10.56244,0 -19.125,-8.67449 -19.125,-19.375c0,-10.70051 8.56256,-19.375 19.125,-19.375c10.56244,0 19.125,8.67449 19.125,19.375z" fill="#ff6666"/><path d="M132.45535,170.34239c0,9.1127 -6.93958,16.5 -15.5,16.5c-8.56042,0 -15.5,-7.3873 -15.5,-16.5c0,-9.1127 6.93958,-16.5 15.5,-16.5c8.56042,0 15.5,7.3873 15.5,16.5z" fill="#66aeff"/><path d="M152.70535,187.09239v-38.75c0,0 4.57901,-3.25 6.5,-3.25c2.61283,0 7.75,3.25 7.75,3.25v38.75c0,0 -4.73812,3.75 -7,3.75c-2.46981,0 -7.25,-3.75 -7.25,-3.75z" fill="#ffffff"/><path d="M175.20535,187.84239v-38.75c0,0 4.57901,-3.25 6.5,-3.25c2.61283,0 7.75,3.25 7.75,3.25v38.75c0,0 -4.73812,3.75 -7,3.75c-2.46981,0 -7.25,-3.75 -7.25,-3.75z" fill="#ffffff"/><path d="M197.25893,161.02319v-17.14286h14.71428c0,0 0,9.56842 0,12.71428c0,1.85663 -1.14285,9.57143 -1.14285,9.57143c0,0 -0.79521,-1.91562 -1.93548,-3.29047c-0.98028,-1.18194 -2.25286,-1.85238 -3.06451,-1.85238c-2.61973,0 -8.57143,0 -8.57143,0z" fill="#ffffff"/><path d="M226.20276,189.02319c0,0 -1.51525,-16.98321 -1.51525,-24.71428c0,-6.68893 1.51525,-19 1.51525,-19c0,0 3.67256,-4 5.90152,-4c2.66413,0 9.01179,4 9.01179,4c0,0 -2.23301,11.55287 -2.23301,17.85714c0,7.90282 2.23301,25.85715 2.23301,25.85715c0,0 -5.8549,3.57143 -8.45354,3.57143c-2.34674,0 -6.45978,-3.57143 -6.45978,-3.57143z" fill="#ffffff"/><path d="M272.11606,188.59461c0,0 -1.57143,-15.68898 -1.57143,-23c0,-6.43365 1.57143,-18.57143 1.57143,-18.57143h12.28572c0,0 2,12.83982 2,20c0,6.66083 -2,21.57143 -2,21.57143c0,0 -3.46265,1.85715 -5.28572,1.85715c-2.20067,0 -7,-1.85715 -7,-1.85715z" fill="#af5218"/><path d="M286.68748,150.95176c0,4.14213 -3.58172,7.5 -8,7.5c-4.41828,0 -8,-3.35787 -8,-7.5c0,-4.14213 3.58172,-7.5 8,-7.5c4.41828,0 8,3.35787 8,7.5z" fill="#af5218"/><path d="M298.68748,189.59461c0,0 -1.57143,-15.68898 -1.57143,-23c0,-6.43365 1.57143,-18.57143 1.57143,-18.57143h12.28571c0,0 2,12.83982 2,20c0,6.66083 -2,21.57143 -2,21.57143c0,0 -3.46265,1.85715 -5.28571,1.85715c-2.20067,0 -7,-1.85715 -7,-1.85715z" fill="#af5218"/><path d="M313.25889,151.95176c0,4.14213 -3.58172,7.5 -8,7.5c-4.41828,0 -8,-3.35787 -8,-7.5c0,-4.14213 3.58172,-7.5 8,-7.5c4.41828,0 8,3.35787 8,7.5z" fill="#af5218"/><path d="M325.11606,190.16605c0,0 -1.57143,-15.68898 -1.57143,-23c0,-6.43365 1.57143,-18.57142 1.57143,-18.57142h12.28572c0,0 2,12.83982 2,20c0,6.66083 -2,21.57142 -2,21.57142c0,0 -3.46265,1.85715 -5.28572,1.85715c-2.20067,0 -7,-1.85715 -7,-1.85715z" fill="#af5218"/><path d="M339.68748,152.52319c0,4.14213 -3.58172,7.5 -8,7.5c-4.41828,0 -8,-3.35787 -8,-7.5c0,-4.14213 3.58172,-7.5 8,-7.5c4.41828,0 8,3.35787 8,7.5z" fill="#af5218"/><path d="M381.40179,165.95176c0,9.74388 -7.48324,17.64286 -16.71429,17.64286c-9.23105,0 -16.71429,-7.89898 -16.71429,-17.64286c0,-5.24375 2.16726,-9.9532 5.60785,-13.18475c1.49653,-1.4056 -0.98622,6.77127 0.70138,13.20552c1.64207,6.26063 7.44542,10.76494 9.54791,10.76494c2.4383,0 7.09768,-1.08746 9.39326,-6.95795c2.45484,-6.27777 2.51418,-17.3074 4.09788,-15.37915c2.54201,3.09505 4.08029,7.1336 4.08029,11.55138z" fill="#af5218"/><path d="M390.59821,185.3089c0,0 0.13144,-16.33393 0.77106,-19.5036c1.16684,-5.78234 6.80036,-11.35354 6.80036,-11.35354l-1.14286,30.85714z" data-paper-data="{&quot;index&quot;:null}" fill="#66aeff"/><path d="M410.04464,144.27095c8.56041,0 15.5,7.3873 15.5,16.5c0,9.1127 -6.93959,16.5 -15.5,16.5c-8.56042,0 -15.5,-7.3873 -15.5,-16.5c0,-9.1127 6.93958,-16.5 15.5,-16.5z" data-paper-data="{&quot;index&quot;:null}" fill="#66aeff"/><path d="M292.95685,227.75842v-19.4433c0,0 2.29758,-1.63073 3.26146,-1.63073c1.31102,0 3.88866,1.63073 3.88866,1.63073v19.4433c0,0 -2.37741,1.88161 -3.51234,1.88161c-1.23926,0 -3.63778,-1.88161 -3.63778,-1.88161z" fill="#ffffff"/><path d="M85.45891,206.98397c0,0 -2.02353,-2.04418 -2.02353,-3.03529c0,-0.74334 2.02353,-2.38487 2.02353,-2.38487c0,0 8.15039,-0.86723 12.28572,-0.86723c4.26779,0 12.93614,0.86723 12.93614,0.86723c0,0 0.93949,1.74433 0.93949,2.60168c0,0.94148 -0.93949,2.81849 -0.93949,2.81849c0,0 -7.95945,0.93949 -12.06891,0.93949c-4.29005,0 -13.15294,-0.93949 -13.15294,-0.93949z" fill="#af5218"/><path d="M81.33959,222.9554c0,0 -0.79496,-7.93678 -0.79496,-11.6353c0,-3.25467 0.79496,-9.39496 0.79496,-9.39496h6.21513c0,0 1.01176,6.49544 1.01176,10.11765c0,3.3696 -1.01176,10.91261 -1.01176,10.91261c0,0 -1.75169,0.9395 -2.67395,0.9395c-1.11328,0 -3.54118,-0.9395 -3.54118,-0.9395z" fill="#af5218"/><path d="M88.71102,203.91254c0,2.09543 -1.81193,3.79412 -4.04706,3.79412c-2.23513,0 -4.04706,-1.69869 -4.04706,-3.79412c0,-2.09543 1.81193,-3.79412 4.04706,-3.79412c2.23513,0 4.04706,1.69869 4.04706,3.79412z" fill="#af5218"/><path d="M94.78161,223.46128c0,0 -0.79496,-7.93678 -0.79496,-11.6353c0,-3.25467 0.79496,-9.39496 0.79496,-9.39496h6.21513c0,0 1.01176,6.49544 1.01176,10.11765c0,3.3696 -1.01176,10.91261 -1.01176,10.91261c0,0 -1.75169,0.9395 -2.67395,0.9395c-1.11328,0 -3.54118,-0.9395 -3.54118,-0.9395z" fill="#af5218"/><path d="M102.15303,204.41843c0,2.09543 -1.81193,3.79412 -4.04706,3.79412c-2.23513,0 -4.04706,-1.69869 -4.04706,-3.79412c0,-2.09543 1.81193,-3.79412 4.04706,-3.79412c2.23513,0 4.04706,1.69869 4.04706,3.79412z" fill="#af5218"/><path d="M108.15136,223.75037c0,0 -0.79496,-7.93678 -0.79496,-11.6353c0,-3.25467 0.79496,-9.39496 0.79496,-9.39496h6.21513c0,0 1.01176,6.49544 1.01176,10.11765c0,3.3696 -1.01176,10.9126 -1.01176,10.9126c0,0 -1.75169,0.9395 -2.67395,0.9395c-1.11328,0 -3.54118,-0.9395 -3.54118,-0.9395z" fill="#af5218"/><path d="M115.52279,204.7075c0,2.09543 -1.81193,3.79412 -4.04706,3.79412c-2.23513,0 -4.04706,-1.69869 -4.04706,-3.79412c0,-2.09543 1.81193,-3.79412 4.04706,-3.79412c2.23513,0 4.04706,1.69869 4.04706,3.79412z" fill="#af5218"/><path d="M137.67177,224.67572v-20.5h5.20149v20.5z" fill="#66aeff"/><path d="M140.4255,214.27274c0,5.57643 -4.24661,10.09701 -9.48507,10.09701c-5.23847,0 -9.48507,-4.52059 -9.48507,-10.09701c0,-5.57643 4.24661,-10.09701 9.48507,-10.09701c5.23847,0 9.48507,4.52059 9.48507,10.09701z" fill="#66aeff"/><path d="M162.49145,226.86964l-8.95915,-10.86637c0,0 0.53265,-1.97005 1.07133,-2.41419c0.7327,-0.6041 2.92469,-0.88047 2.92469,-0.88047l8.95915,10.86637c0,0 -0.46166,2.14705 -1.09594,2.67001c-0.69259,0.57103 -2.90008,0.62465 -2.90008,0.62465z" fill="#ffffff"/><path d="M153.56749,216.27511c-0.63428,-0.52295 -1.09594,-2.67001 -1.09594,-2.67001l8.95916,-10.86637c0,0 2.19199,0.27636 2.92468,0.88045c0.53868,0.44414 1.07134,2.4142 1.07134,2.4142l-8.95915,10.86637c0,0 -2.20749,-0.05362 -2.90008,-0.62464z" data-paper-data="{&quot;index&quot;:null}" fill="#ffffff"/><path d="M149.03869,224.86835v-20.39845c0,0 2.41044,-1.71084 3.42167,-1.71084c1.37543,0 4.07969,1.71084 4.07969,1.71084v20.39845c0,0 -2.4942,1.97405 -3.68488,1.97405c-1.30014,0 -3.81648,-1.97405 -3.81648,-1.97405z" fill="#ffffff"/><path d="M193.83892,205.37056l-16.1424,23.50573c0,0 -2.04049,0.03454 -2.61659,-0.35986c-0.78358,-0.53645 -1.65696,-2.56583 -1.65696,-2.56583l16.14239,-23.50573c0,0 2.19087,-0.15183 2.8692,0.31256c0.74069,0.50708 1.40435,2.61313 1.40435,2.61313z" fill="#ffffff"/><path d="M184.00436,215.51128c-0.5618,0.60014 -2.73363,0.92589 -2.73363,0.92589l-10.28154,-9.62467c0,0 0.41364,-2.17028 1.06261,-2.86354c0.47713,-0.50969 2.47678,-0.91742 2.47678,-0.91742l10.28154,9.62467c0,0 -0.19231,2.19975 -0.80576,2.85507z" data-paper-data="{&quot;index&quot;:null}" fill="#ffffff"/><path d="M220.43804,217.48525c0,6.58797 -5.01693,11.92857 -11.20563,11.92857c-6.1887,0 -11.20562,-5.3406 -11.20562,-11.92857c0,-6.58797 5.01692,-11.92857 11.20562,-11.92857c6.1887,0 11.20563,5.3406 11.20563,11.92857z" fill="#66aeff"/><path d="M244.68974,227.7723l-0.71071,-19.18915c0,0 3.50332,3.46456 4.22894,7.06044c0.39776,1.97113 0.47951,12.12872 0.47951,12.12872z" fill="#af5218"/><path d="M246.99956,216.00118c0,6.05944 -4.6536,10.97158 -10.39413,10.97158c-5.74052,0 -10.39413,-4.91214 -10.39413,-10.97158c0,-3.26093 1.34776,-6.1896 3.48736,-8.19921c0.93065,-0.8741 -0.61331,4.21085 0.43616,8.21212c1.02115,3.8933 4.63009,6.6944 5.93757,6.6944c1.5163,0 4.41384,-0.67626 5.8414,-4.32694c1.52659,-3.90396 1.56349,-10.76296 2.54835,-9.56384c1.5808,1.92472 2.53742,4.43617 2.53742,7.18346z" fill="#af5218"/><path d="M266.09821,229.14224c0,0 0.08553,-10.62898 0.50175,-12.69158c0.7593,-3.76274 4.4252,-7.38808 4.4252,-7.38808l-0.7437,20.07966z" data-paper-data="{&quot;index&quot;:null}" fill="#66aeff"/><path d="M278.75258,202.43762c5.57052,0 10.08631,4.80714 10.08631,10.73704c0,5.9299 -4.5158,10.73704 -10.08631,10.73704c-5.57052,0 -10.08631,-4.80714 -10.08631,-10.73704c0,-5.9299 4.51579,-10.73704 10.08631,-10.73704z" data-paper-data="{&quot;index&quot;:null}" fill="#66aeff"/><path d="M324.09709,229.71367l-0.74194,-20.0325c0,0 3.65729,3.61683 4.41481,7.37074c0.41524,2.05775 0.50058,12.66177 0.50058,12.66177z" fill="#af5218"/><path d="M326.50843,217.42521c0,6.32574 -4.85814,11.45377 -10.85095,11.45377c-5.99281,0 -10.85094,-5.12803 -10.85094,-11.45377c0,-3.40425 1.40699,-6.46164 3.64063,-8.55956c0.97155,-0.91252 -0.64026,4.39592 0.45533,8.57305c1.06603,4.06441 4.83357,6.98861 6.19851,6.98861c1.58295,0 4.60782,-0.70598 6.09812,-4.51711c1.59368,-4.07554 1.63221,-11.23599 2.66035,-9.98417c1.65028,2.00931 2.64893,4.63114 2.64893,7.49917z" fill="#af5218"/><path d="M333.26533,223.35171c0,0 4.72892,4.17343 7.34789,4.20719c3.00881,0.03879 9.69823,-3.98745 9.69823,-3.98745c0,0 1.40371,2.03273 1.39282,2.87778c-0.01482,1.14938 -1.47363,3.3908 -1.47363,3.3908c0,0 -6.69574,3.3564 -9.7334,3.31724c-2.56353,-0.03305 -7.31272,-3.53698 -7.31272,-3.53698c0,0 -1.62276,-2.10556 -1.60993,-3.10056c0.014,-1.08647 1.69074,-3.16801 1.69074,-3.16801z" data-paper-data="{&quot;index&quot;:null}" fill="#ffffff"/><path d="M341.37912,209.14067c0,0 4.92042,-2.37753 7.66955,-2.34209c2.92232,0.03767 9.37656,2.56182 9.37656,2.56182c0,0 1.40371,2.03274 1.39282,2.87778c-0.01482,1.14938 -1.47363,3.3908 -1.47363,3.3908c0,0 -6.09482,-2.85296 -8.95149,-2.88979c-2.82501,-0.03642 -8.09462,2.67005 -8.09462,2.67005c0,0 -1.62276,-2.10556 -1.60993,-3.10056c0.014,-1.08647 1.69074,-3.168 1.69074,-3.168z" data-paper-data="{&quot;index&quot;:null}" fill="#ffffff"/><path d="M349.30602,227.95241c0,0 -4.79601,-3.60975 -6.85422,-5.56315c-1.78076,-1.69008 -4.78363,-5.48205 -4.78363,-5.48205c0,0 -0.39922,-2.66211 0.0048,-3.6644c0.4829,-1.19797 2.69837,-3.04164 2.69837,-3.04164c0,0 2.67091,3.92315 4.34927,5.51604c2.10393,1.99679 7.28858,5.52916 7.28858,5.52916c0,0 -0.11045,3.53515 -0.58148,4.70367c-0.42537,1.05525 -2.1217,2.00237 -2.1217,2.00237z" data-paper-data="{&quot;index&quot;:null}" fill="#ffffff"/></g></g></svg>