<svg version="1.1" xmlns="http://www.w3.org/2000/svg" xmlns:xlink="http://www.w3.org/1999/xlink" width="54.07152" height="40.25025" viewBox="0,0,54.07152,40.25025"><g transform="translate(-212.62862,-159.87487)"><g data-paper-data="{&quot;isPaintingLayer&quot;:true}" fill="#00ffff" fill-rule="nonzero" stroke="#000000" stroke-width="2" stroke-linecap="butt" stroke-linejoin="miter" stroke-miterlimit="10" stroke-dasharray="" stroke-dashoffset="0" style="mix-blend-mode: normal"><path d="M222.16843,197.51106c0,0 -1.31142,-11.6121 -1.31142,-17.04857c0,-4.71714 1.31142,-13.71956 1.31142,-13.71956c0,0 4.55988,-2.62286 6.55714,-2.62286c1.68019,0 4.64044,2.62286 4.64044,2.62286c0,0 1.31144,6.00978 1.31144,9.88615c0,5.67638 -1.31144,20.88198 -1.31144,20.88198c0,0 -3.69058,1.61407 -5.54835,1.61407c-1.8746,0 -5.64923,-1.61407 -5.64923,-1.61407z"/><path d="M214.29986,178.34402c0,0 4.11419,-9.99677 9.03788,-14.48717c4.92368,-4.4904 5.36785,-3.22742 7.57586,-0.66456c2.20801,2.56287 2.64322,6.77187 -0.1329,9.30369c-2.77613,2.53182 -16.48084,5.84804 -16.48084,5.84804z"/><path d="M244.26096,194.23248c0,1.365 -1.1517,2.47153 -2.57241,2.47153c-1.42071,0 -2.57241,-1.10654 -2.57241,-2.47153c0,-1.36499 1.1517,-2.47153 2.57241,-2.47153c1.42071,0 2.57241,1.10655 2.57241,2.47153z"/><path d="M251.13571,193.81793c0,0 -2.23431,-9.02936 -2.23431,-13.57138c0,-4.69368 2.23431,-14.15067 2.23431,-14.15067c0,0 3.82338,-1.5723 5.87543,-1.5723c2.3268,0 7.36497,1.5723 7.36497,1.5723c0,0 1.32403,9.78798 1.32403,14.48166c0,4.54201 -1.32403,13.24038 -1.32403,13.24038c0,0 -4.04263,2.48257 -6.28918,2.48257c-2.16381,0 -6.9512,-2.48257 -6.9512,-2.48257z"/><path d="M253.50135,189.41846c0,0 -1.4727,-5.95153 -1.4727,-8.94531c0,-3.09375 1.4727,-9.32711 1.4727,-9.32711c0,0 2.52009,-1.03635 3.87266,-1.03635c1.53367,0 4.85447,1.03635 4.85447,1.03635c0,0 0.87272,6.45154 0.87272,9.54528c0,2.99377 -0.87272,8.72712 -0.87272,8.72712c0,0 -2.66463,1.63633 -4.14538,1.63633c-1.42622,0 -4.58174,-1.63633 -4.58174,-1.63633z"/></g></g></svg>