<svg version="1.1" xmlns="http://www.w3.org/2000/svg" xmlns:xlink="http://www.w3.org/1999/xlink" width="373.08929" height="148.85391" viewBox="0,0,373.08929,148.85391"><g transform="translate(-53.45544,-110.62776)"><g data-paper-data="{&quot;isPaintingLayer&quot;:true}" fill-rule="nonzero" stroke="#000000" stroke-width="2" stroke-linecap="butt" stroke-linejoin="miter" stroke-miterlimit="10" stroke-dasharray="" stroke-dashoffset="0" style="mix-blend-mode: normal"><path d="M377.68759,205.16187l-1.14286,-30.85714c0,0 5.63352,5.5712 6.80036,11.35355c0.63962,3.16967 0.77107,19.5036 0.77107,19.5036z" fill="#af5218"/><path d="M280.25892,177.30472c0,0 -4,-4.04082 -4,-6c0,-1.46939 4,-4.71428 4,-4.71428c0,0 16.11124,-1.71429 24.28572,-1.71429c8.43632,0 25.57143,1.71429 25.57143,1.71429c0,0 1.85714,3.44809 1.85714,5.14285c0,1.86107 -1.85714,5.57143 -1.85714,5.57143c0,0 -15.73379,1.85714 -23.85714,1.85714c-8.48033,0 -26,-1.85714 -26,-1.85714z" fill="#af5218"/><path d="M239.63381,199.878l25.56074,0.3295c0,0 2.10487,3.0481 2.08853,4.31524c-0.02221,1.7235 -2.2097,5.08451 -2.2097,5.08451l-25.56074,-0.3295c0,0 -2.43333,-3.1573 -2.4141,-4.64931c0.021,-1.62917 2.53527,-4.75045 2.53527,-4.75045z" fill="#ffffff"/><path d="M233.77665,183.73514l25.56074,0.3295c0,0 2.10487,3.04809 2.08854,4.31524c-0.02222,1.7235 -2.20971,5.08452 -2.20971,5.08452l-25.56074,-0.3295c0,0 -2.43333,-3.1573 -2.4141,-4.64931c0.021,-1.62917 2.53527,-4.75045 2.53527,-4.75045z" fill="#ffffff"/><path d="M235.77665,164.59229l25.56074,0.32949c0,0 2.10487,3.0481 2.08854,4.31524c-0.02222,1.7235 -2.20971,5.08452 -2.20971,5.08452l-25.56074,-0.3295c0,0 -2.43333,-3.1573 -2.4141,-4.64931c0.021,-1.62917 2.53527,-4.75044 2.53527,-4.75044z" fill="#ffffff"/><path d="M127.95545,207.62392v-33.5h8.5v33.5z" fill="#66aeff"/><path d="M55.20543,184.12392v-37h12v37z" fill="#ff6666"/><path d="M92.70545,190.24892c0,10.70051 -8.56256,19.375 -19.125,19.375c-10.56244,0 -19.125,-8.67449 -19.125,-19.375c0,-10.70051 8.56256,-19.375 19.125,-19.375c10.56244,0 19.125,8.67449 19.125,19.375z" fill="#ff6666"/><path d="M132.45544,190.62392c0,9.1127 -6.93958,16.5 -15.5,16.5c-8.56042,0 -15.5,-7.3873 -15.5,-16.5c0,-9.1127 6.93958,-16.5 15.5,-16.5c8.56042,0 15.5,7.3873 15.5,16.5z" fill="#66aeff"/><path d="M152.70544,207.37392v-38.75c0,0 4.57901,-3.25 6.5,-3.25c2.61283,0 7.75,3.25 7.75,3.25v38.75c0,0 -4.73812,3.75 -7,3.75c-2.46981,0 -7.25,-3.75 -7.25,-3.75z" fill="#ffffff"/><path d="M175.20545,208.12392v-38.75c0,0 4.57901,-3.25 6.5,-3.25c2.61283,0 7.75,3.25 7.75,3.25v38.75c0,0 -4.73812,3.75 -7,3.75c-2.46981,0 -7.25,-3.75 -7.25,-3.75z" fill="#ffffff"/><path d="M197.259,181.30472v-17.14286h14.71428c0,0 0,9.56842 0,12.71428c0,1.85663 -1.14285,9.57143 -1.14285,9.57143c0,0 -0.79521,-1.91562 -1.93548,-3.29047c-0.98028,-1.18194 -2.25286,-1.85238 -3.06451,-1.85238c-2.61973,0 -8.57143,0 -8.57143,0z" fill="#ffffff"/><path d="M226.20286,209.30472c0,0 -1.51525,-16.98321 -1.51525,-24.71428c0,-6.68893 1.51525,-19 1.51525,-19c0,0 3.67256,-4 5.90152,-4c2.66413,0 9.01179,4 9.01179,4c0,0 -2.23301,11.55287 -2.23301,17.85714c0,7.90282 2.23301,25.85715 2.23301,25.85715c0,0 -5.8549,3.57143 -8.45354,3.57143c-2.34674,0 -6.45978,-3.57143 -6.45978,-3.57143z" fill="#ffffff"/><path d="M272.11609,208.87615c0,0 -1.57143,-15.68898 -1.57143,-23c0,-6.43365 1.57143,-18.57143 1.57143,-18.57143h12.28572c0,0 2,12.83982 2,20c0,6.66083 -2,21.57143 -2,21.57143c0,0 -3.46265,1.85715 -5.28572,1.85715c-2.20067,0 -7,-1.85715 -7,-1.85715z" fill="#af5218"/><path d="M286.68755,171.2333c0,4.14213 -3.58172,7.5 -8,7.5c-4.41828,0 -8,-3.35787 -8,-7.5c0,-4.14213 3.58172,-7.5 8,-7.5c4.41828,0 8,3.35787 8,7.5z" fill="#af5218"/><path d="M298.68755,209.87615c0,0 -1.57143,-15.68898 -1.57143,-23c0,-6.43365 1.57143,-18.57143 1.57143,-18.57143h12.28571c0,0 2,12.83982 2,20c0,6.66083 -2,21.57143 -2,21.57143c0,0 -3.46265,1.85715 -5.28571,1.85715c-2.20067,0 -7,-1.85715 -7,-1.85715z" fill="#af5218"/><path d="M313.25892,172.2333c0,4.14213 -3.58172,7.5 -8,7.5c-4.41828,0 -8,-3.35787 -8,-7.5c0,-4.14213 3.58172,-7.5 8,-7.5c4.41828,0 8,3.35787 8,7.5z" fill="#af5218"/><path d="M325.11609,210.44759c0,0 -1.57143,-15.68898 -1.57143,-23c0,-6.43365 1.57143,-18.57142 1.57143,-18.57142h12.28572c0,0 2,12.83982 2,20c0,6.66083 -2,21.57142 -2,21.57142c0,0 -3.46265,1.85715 -5.28572,1.85715c-2.20067,0 -7,-1.85715 -7,-1.85715z" fill="#af5218"/><path d="M339.68759,172.80472c0,4.14213 -3.58172,7.5 -8,7.5c-4.41828,0 -8,-3.35787 -8,-7.5c0,-4.14213 3.58172,-7.5 8,-7.5c4.41828,0 8,3.35787 8,7.5z" fill="#af5218"/><path d="M381.40188,186.2333c0,9.74388 -7.48324,17.64286 -16.71429,17.64286c-9.23105,0 -16.71429,-7.89898 -16.71429,-17.64286c0,-5.24375 2.16726,-9.9532 5.60785,-13.18475c1.49653,-1.4056 -0.98622,6.77127 0.70138,13.20552c1.64207,6.26063 7.44542,10.76494 9.54791,10.76494c2.4383,0 7.09768,-1.08746 9.39326,-6.95795c2.45484,-6.27777 2.51418,-17.3074 4.09788,-15.37915c2.54201,3.09505 4.08029,7.1336 4.08029,11.55138z" fill="#af5218"/><path d="M390.5983,205.59043c0,0 0.13144,-16.33393 0.77106,-19.5036c1.16684,-5.78234 6.80036,-11.35354 6.80036,-11.35354l-1.14286,30.85714z" data-paper-data="{&quot;index&quot;:null}" fill="#66aeff"/><path d="M410.04474,164.55247c8.56041,0 15.5,7.3873 15.5,16.5c0,9.1127 -6.93959,16.5 -15.5,16.5c-8.56042,0 -15.5,-7.3873 -15.5,-16.5c0,-9.1127 6.93958,-16.5 15.5,-16.5z" data-paper-data="{&quot;index&quot;:null}" fill="#66aeff"/><path d="M142.34572,245.9515c0,0 -4.54903,1.5429 -6.78754,1.36718c-2.19151,-0.17203 -6.50551,-2.41068 -6.50551,-2.41068c0,0 -1.01353,-1.99821 -0.971,-2.79978c0.05785,-1.09026 1.28648,-3.14634 1.28648,-3.14634c0,0 3.83664,3.11408 5.95805,3.28061c2.29582,0.18022 7.335,-2.23712 7.335,-2.23712c0,0 1.18153,2.07806 1.13145,3.02188c-0.05468,1.03058 -1.44693,2.92423 -1.44693,2.92423z" fill="#ffffff"/><path d="M165.60513,257.02019v-20.5h5.20149v20.5z" fill="#66aeff"/><path d="M168.35888,246.61721c0,5.57643 -4.24661,10.09701 -9.48507,10.09701c-5.23847,0 -9.48507,-4.52059 -9.48507,-10.09701c0,-5.57643 4.24661,-10.09701 9.48507,-10.09701c5.23847,0 9.48507,4.52059 9.48507,10.09701z" fill="#66aeff"/><path d="M80.93202,246.60173c0,0 4.72892,4.17343 7.34789,4.20719c3.00881,0.03879 9.69823,-3.98745 9.69823,-3.98745c0,0 1.40371,2.03273 1.39282,2.87778c-0.01482,1.14938 -1.47363,3.3908 -1.47363,3.3908c0,0 -6.69574,3.3564 -9.7334,3.31724c-2.56353,-0.03305 -7.31272,-3.53698 -7.31272,-3.53698c0,0 -1.62276,-2.10556 -1.60993,-3.10056c0.014,-1.08647 1.69074,-3.16801 1.69074,-3.16801z" data-paper-data="{&quot;index&quot;:null}" fill="#ffffff"/><path d="M89.04583,232.39069c0,0 4.92042,-2.37753 7.66955,-2.34209c2.92232,0.03767 9.37656,2.56182 9.37656,2.56182c0,0 1.40371,2.03274 1.39282,2.87778c-0.01482,1.14938 -1.47363,3.3908 -1.47363,3.3908c0,0 -6.09482,-2.85296 -8.95149,-2.88979c-2.82501,-0.03642 -8.09462,2.67005 -8.09462,2.67005c0,0 -1.62276,-2.10556 -1.60993,-3.10056c0.014,-1.08647 1.69074,-3.168 1.69074,-3.168z" data-paper-data="{&quot;index&quot;:null}" fill="#ffffff"/><path d="M96.97273,251.20243c0,0 -4.79601,-3.60975 -6.85422,-5.56315c-1.78076,-1.69008 -4.78363,-5.48205 -4.78363,-5.48205c0,0 -0.39922,-2.66211 0.0048,-3.6644c0.4829,-1.19797 2.69837,-3.04164 2.69837,-3.04164c0,0 2.67091,3.92315 4.34927,5.51604c2.10393,1.99679 7.28858,5.52916 7.28858,5.52916c0,0 -0.11045,3.53515 -0.58148,4.70367c-0.42537,1.05525 -2.1217,2.00237 -2.1217,2.00237z" data-paper-data="{&quot;index&quot;:null}" fill="#ffffff"/><path d="M126.03575,255.01223v-16.2029c0,0 1.91466,-1.35895 2.71791,-1.35895c1.09253,0 3.24058,1.35895 3.24058,1.35895v16.2029c0,0 -1.98119,1.56802 -2.92697,1.56802c-1.03272,0 -3.03151,-1.56802 -3.03151,-1.56802z" fill="#ffffff"/><path d="M110.26024,249.17319c0,1.04149 0.83512,3.57877 3.32385,4.41164c2.52184,0.84394 6.6938,-0.01874 6.08606,0.70183c-1.35043,1.6011 -3.28921,2.60469 -5.44332,2.60469c-4.08024,0 -7.38796,-3.60079 -7.38796,-8.04257c0,-4.4418 3.3077,-8.04257 7.38796,-8.04257c2.26279,0 4.28798,1.10743 5.6432,2.85157c0.65793,0.84676 -4.45036,0.66446 -7.4396,1.85126c-1.95617,0.77665 -2.17018,2.88156 -2.17018,3.66416z" fill="#b9ff80"/><path d="M183.29117,255.20849c0,0 -0.52576,-8.56629 -0.52576,-12.46582c0,-3.37388 0.52576,-9.58355 0.52576,-9.58355c0,0 1.27429,-2.01759 2.04769,-2.01759c0.92439,0 3.12688,2.01759 3.12688,2.01759c0,0 -0.7748,5.82724 -0.7748,9.00709c0,3.98616 0.7748,13.04227 0.7748,13.04227c0,0 -2.03151,1.80142 -2.93318,1.80142c-0.81426,0 -2.24139,-1.80142 -2.24139,-1.80142z" fill="#ffffff"/><path d="M193.47702,241.42681l-13.68427,-0.88312c0,0 -1.04336,-1.69111 -0.99958,-2.36949c0.05955,-0.9227 1.32434,-2.66279 1.32434,-2.66279l13.68427,0.88312c0,0 1.2163,1.75869 1.16475,2.55746c-0.05629,0.87219 -1.48952,2.47482 -1.48952,2.47482z" fill="#ffffff"/><path d="M200.01025,249.17318c0,1.04149 0.83512,3.57877 3.32385,4.41164c2.52184,0.84394 6.6938,-0.01874 6.08606,0.70183c-1.35043,1.6011 -3.28921,2.60469 -5.44332,2.60469c-4.08024,0 -7.38796,-3.60079 -7.38796,-8.04257c0,-4.4418 3.3077,-8.04257 7.38796,-8.04257c2.26279,0 4.28798,1.10743 5.6432,2.85157c0.65793,0.84676 -4.45036,0.66446 -7.4396,1.85126c-1.95617,0.77665 -2.17018,2.88156 -2.17018,3.66416z" fill="#b9ff80"/><path d="M219.40852,245.31015c0,0 -1.53471,1.29892 -2.28506,1.31292c-0.56277,0.01049 -1.81848,-1.23639 -1.81848,-1.23639c0,0 -0.70862,-5.10328 -0.73502,-7.6988c-0.02725,-2.67863 0.57396,-8.1315 0.57396,-8.1315c0,0 1.31461,-0.61427 1.96371,-0.6264c0.7128,-0.0133 2.13984,0.54988 2.13984,0.54988c0,0 0.7621,4.98243 0.78836,7.56168c0.0274,2.6926 -0.62729,8.26862 -0.62729,8.26862z" fill="#af5218"/><path d="M217.38062,244.17944c0,0 -0.93814,-1.54778 -0.93814,-2.29821c0,-0.56283 0.93814,-1.80574 0.93814,-1.80574c0,0 3.77866,-0.65664 5.69585,-0.65664c1.97861,0 5.99739,0.65664 5.99739,0.65664c0,0 0.43557,1.32074 0.43557,1.96989c0,0.71285 -0.43557,2.13405 -0.43557,2.13405c0,0 -3.69012,0.71134 -5.59533,0.71134c-1.98893,0 -6.09791,-0.71134 -6.09791,-0.71134z" fill="#af5218"/><path d="M214.93223,256.50219c0,0 -0.6019,-6.00943 -0.6019,-8.8098c0,-2.46431 0.6019,-7.1135 0.6019,-7.1135h4.70585c0,0 0.76607,4.91809 0.76607,7.66069c0,2.55132 -0.76607,8.26261 -0.76607,8.26261c0,0 -1.32631,0.71136 -2.02462,0.71136c-0.84294,0 -2.68125,-0.71136 -2.68125,-0.71136z" fill="#af5218"/><path d="M220.51358,242.0837c0,1.58658 -1.37192,2.87276 -3.06428,2.87276c-1.69236,0 -3.06428,-1.28617 -3.06428,-2.87276c0,-1.58658 1.37192,-2.87276 3.06428,-2.87276c1.69236,0 3.06428,1.28617 3.06428,2.87276z" fill="#af5218"/><path d="M225.11,256.88524c0,0 -0.6019,-6.00943 -0.6019,-8.8098c0,-2.46431 0.6019,-7.1135 0.6019,-7.1135h4.70585c0,0 0.76607,4.91809 0.76607,7.66069c0,2.55132 -0.76607,8.26261 -0.76607,8.26261c0,0 -1.32631,0.71136 -2.02461,0.71136c-0.84294,0 -2.68125,-0.71136 -2.68125,-0.71136z" fill="#af5218"/><path d="M230.69137,242.46673c0,1.58658 -1.37192,2.87276 -3.06428,2.87276c-1.69236,0 -3.06428,-1.28617 -3.06428,-2.87276c0,-1.58658 1.37192,-2.87276 3.06428,-2.87276c1.69236,0 3.06428,1.28617 3.06428,2.87276z" fill="#af5218"/><path d="M366.6571,246.2416c0,5.76128 -4.38738,10.43172 -9.7995,10.43172c-5.41211,0 -9.79949,-4.67044 -9.79949,-10.43172c0,-5.76128 4.38737,-10.43172 9.79949,-10.43172c5.41211,0 9.7995,4.67044 9.7995,10.43172z" fill="#66aeff"/><path d="M377.98513,242.67707c0,0 -1.99838,1.02221 -2.97543,1.03322c-0.7328,0.00826 -2.36789,-0.973 -2.36789,-0.973c0,0 -0.92271,-4.01612 -0.95709,-6.05871c-0.03548,-2.108 0.74737,-6.39922 0.74737,-6.39922c0,0 1.71179,-0.48341 2.55699,-0.49296c0.92815,-0.01047 2.78634,0.43273 2.78634,0.43273c0,0 0.99235,3.92101 1.02654,5.9508c0.03568,2.11899 -0.81681,6.50713 -0.81681,6.50713z" fill="#af5218"/><path d="M375.34454,240.52835c0,0 -1.22157,-2.0154 -1.22157,-2.99256c0,-0.73287 1.22157,-2.3513 1.22157,-2.3513c0,0 4.92029,-0.85503 7.4167,-0.85503c2.5764,0 7.80935,0.85503 7.80935,0.85503c0,0 0.56717,1.71977 0.56717,2.56504c0,0.92822 -0.56717,2.7788 -0.56717,2.7788c0,0 -4.80499,0.92625 -7.28582,0.92625c-2.58983,0 -7.94024,-0.92625 -7.94024,-0.92625z" fill="#af5218"/><path d="M372.15644,256.57412c0,0 -0.78375,-7.82502 -0.78375,-11.47145c0,-3.20884 0.78375,-9.26266 0.78375,-9.26266h6.1276c0,0 0.99752,6.40396 0.99752,9.97517c0,3.32214 -0.99752,10.75895 -0.99752,10.75895c0,0 -1.72702,0.92628 -2.63631,0.92628c-1.09761,0 -3.49132,-0.92628 -3.49132,-0.92628z" fill="#af5218"/><path d="M379.42406,237.79945c0,2.06592 -1.78641,3.74069 -3.99007,3.74069c-2.20366,0 -3.99007,-1.67475 -3.99007,-3.74069c0,-2.06592 1.78641,-3.74069 3.99007,-3.74069c2.20366,0 3.99007,1.67475 3.99007,3.74069z" fill="#af5218"/><path d="M385.40917,257.07288c0,0 -0.78375,-7.82502 -0.78375,-11.47145c0,-3.20884 0.78375,-9.26266 0.78375,-9.26266h6.1276c0,0 0.99752,6.40396 0.99752,9.97517c0,3.32214 -0.99752,10.75895 -0.99752,10.75895c0,0 -1.72702,0.92628 -2.63629,0.92628c-1.09761,0 -3.49132,-0.92628 -3.49132,-0.92628z" fill="#af5218"/><path d="M392.6768,238.2982c0,2.06592 -1.78641,3.74069 -3.99007,3.74069c-2.20366,0 -3.99007,-1.67475 -3.99007,-3.74069c0,-2.06592 1.78641,-3.74069 3.99007,-3.74069c2.20366,0 3.99007,1.67475 3.99007,3.74069z" fill="#af5218"/><path d="M333.3282,254.47091v-17.00347c0,0 2.00927,-1.4261 2.8522,-1.4261c1.14651,0 3.40069,1.4261 3.40069,1.4261v17.00347c0,0 -2.07908,1.6455 -3.0716,1.6455c-1.08375,0 -3.1813,-1.6455 -3.1813,-1.6455z" fill="#ffffff"/><path d="M339.17756,231.97746c0,1.47829 -1.19839,2.67667 -2.67667,2.67667c-1.47829,0 -2.67667,-1.19839 -2.67667,-2.67667c0,-1.47829 1.19839,-2.67667 2.67667,-2.67667c1.47829,0 2.67667,1.19839 2.67667,2.67667z" fill="#66aeff"/><path d="M281.38513,245.37828v-16.23556h5.26559v16.23556z" data-paper-data="{&quot;index&quot;:null}" fill="#ff6666"/><path d="M278.58777,239.56419c4.63479,0 8.39203,3.80636 8.39203,8.50173c0,4.69538 -3.75724,8.50173 -8.39203,8.50173c-4.63479,0 -8.39203,-3.80636 -8.39203,-8.50173c0,-4.69538 3.75724,-8.50173 8.39203,-8.50173z" data-paper-data="{&quot;index&quot;:null}" fill="#ff6666"/><path d="M295.13708,253.58053v-16.69736c0,0 1.97309,-1.40042 2.80085,-1.40042c1.12587,0 3.33947,1.40042 3.33947,1.40042v16.69736c0,0 -2.04165,1.61588 -3.0163,1.61588c-1.06424,0 -3.12402,-1.61588 -3.12402,-1.61588z" fill="#ffffff"/><path d="M300.88109,231.49201c0,1.45167 -1.17682,2.62849 -2.62849,2.62849c-1.45167,0 -2.62849,-1.17682 -2.62849,-2.62849c0,-1.45167 1.17682,-2.62849 2.62849,-2.62849c1.45167,0 2.62849,1.17682 2.62849,2.62849z" fill="#66aeff"/><path d="M250.21643,250.96904l14.77358,0.19045c0,0 1.21658,1.76174 1.20713,2.4941c-0.01285,0.99613 -1.27716,2.93876 -1.27716,2.93876l-14.77358,-0.19045c0,0 -1.4064,-1.82486 -1.3953,-2.68719c0.01213,-0.94163 1.46533,-2.74566 1.46533,-2.74566z" fill="#ffffff"/><path d="M246.83112,241.63879l14.77358,0.19045c0,0 1.21658,1.76174 1.20715,2.4941c-0.01285,0.99613 -1.27716,2.93876 -1.27716,2.93876l-14.77358,-0.19045c0,0 -1.4064,-1.82486 -1.3953,-2.68719c0.01213,-0.94163 1.46533,-2.74566 1.46533,-2.74566z" fill="#ffffff"/><path d="M247.98707,230.57462l14.77358,0.19045c0,0 1.21658,1.76174 1.20715,2.4941c-0.01285,0.99613 -1.27716,2.93876 -1.27716,2.93876l-14.77358,-0.19045c0,0 -1.4064,-1.82486 -1.3953,-2.68719c0.01213,-0.94163 1.46533,-2.74566 1.46533,-2.74566z" fill="#ffffff"/><path d="M242.45362,256.41748c0,0 -0.87578,-9.81593 -0.87578,-14.28434c0,-3.86606 0.87578,-10.9816 0.87578,-10.9816c0,0 2.12267,-2.31193 3.41095,-2.31193c1.53982,0 5.20862,2.31193 5.20862,2.31193c0,0 -1.29065,6.6773 -1.29065,10.32103c0,4.56766 1.29065,14.94488 1.29065,14.94488c0,0 -3.38401,2.06422 -4.88597,2.06422c-1.35637,0 -3.7336,-2.06422 -3.7336,-2.06422z" fill="#ffffff"/><path d="M313.64595,254.03422c0,0 -0.66714,-10.86996 -0.66714,-15.81816c0,-4.28119 0.66714,-12.16079 0.66714,-12.16079c0,0 1.61698,-2.56017 2.59836,-2.56017c1.17298,0 3.96777,2.56017 3.96777,2.56017c0,0 -0.98317,7.39432 -0.98317,11.4293c0,5.05813 0.98317,16.54964 0.98317,16.54964c0,0 -2.57784,2.28586 -3.72198,2.28586c-1.03324,0 -2.84416,-2.28586 -2.84416,-2.28586z" fill="#ffffff"/><path d="M326.571,236.54633l-17.36429,-1.12062c0,0 -1.32394,-2.14589 -1.26839,-3.0067c0.07556,-1.17084 1.68048,-3.37887 1.68048,-3.37887l17.36429,1.12062c0,0 1.54339,2.23165 1.47798,3.24522c-0.07143,1.10675 -1.89008,3.14035 -1.89008,3.14035z" fill="#ffffff"/><g><path d="M295.17909,151.73011v-13.49381h3.4238v13.49381z" fill="#66aeff"/><path d="M296.99171,144.88251c0,3.6706 -2.79526,6.6462 -6.2434,6.6462c-3.44814,0 -6.2434,-2.97561 -6.2434,-6.6462c0,-3.6706 2.79526,-6.6462 6.2434,-6.6462c3.44814,0 6.2434,2.97561 6.2434,6.6462z" fill="#66aeff"/><path d="M303.95131,147.17614c0,0 3.11274,2.7471 4.83663,2.76932c1.9805,0.02553 6.38371,-2.62468 6.38371,-2.62468c0,0 0.92397,1.33801 0.9168,1.89425c-0.00976,0.75656 -0.96999,2.23194 -0.96999,2.23194c0,0 -4.40737,2.2093 -6.40686,2.18352c-1.6874,-0.02175 -4.81348,-2.32816 -4.81348,-2.32816c0,0 -1.06816,-1.38595 -1.05971,-2.0409c0.00922,-0.71515 1.1129,-2.08529 1.1129,-2.08529z" data-paper-data="{&quot;index&quot;:null}" fill="#ffffff"/><path d="M309.29209,137.82194c0,0 3.23879,-1.56497 5.04836,-1.54164c1.92357,0.0248 6.17197,1.68628 6.17197,1.68628c0,0 0.92397,1.33802 0.9168,1.89425c-0.00976,0.75656 -0.96999,2.23194 -0.96999,2.23194c0,0 -4.01182,-1.87792 -5.89218,-1.90216c-1.85952,-0.02397 -5.32816,1.75752 -5.32816,1.75752c0,0 -1.06816,-1.38595 -1.05971,-2.0409c0.00922,-0.71515 1.1129,-2.08529 1.1129,-2.08529z" data-paper-data="{&quot;index&quot;:null}" fill="#ffffff"/><path d="M314.50986,150.20448c0,0 -3.1569,-2.37606 -4.51168,-3.66186c-1.17216,-1.11247 -3.14875,-3.60847 -3.14875,-3.60847c0,0 -0.26278,-1.75229 0.00316,-2.41203c0.31786,-0.78855 1.77616,-2.00211 1.77616,-2.00211c0,0 1.75808,2.58235 2.86284,3.63085c1.38488,1.31436 4.79759,3.63948 4.79759,3.63948c0,0 -0.0727,2.32696 -0.38275,3.09612c-0.27999,0.6946 -1.39658,1.31803 -1.39658,1.31803z" data-paper-data="{&quot;index&quot;:null}" fill="#ffffff"/><path d="M262.30635,138.04289c0,1.96875 1.57864,6.765 6.28313,8.3394c4.76707,1.59532 12.6534,-0.03543 11.50457,1.32668c-2.55274,3.02659 -6.21765,4.92369 -10.28959,4.92369c-7.71294,0 -13.96558,-6.80663 -13.96558,-15.203c0,-8.39641 6.2526,-15.203 13.96558,-15.203c4.27739,0 8.10564,2.0934 10.66743,5.39037c1.24369,1.60064 -8.41258,1.25604 -14.0632,3.49946c-3.69778,1.46811 -4.10233,5.44706 -4.10233,6.92642z" fill="#b9ff80"/><path d="M373.86497,151.0811c0,0 -0.43913,-7.15498 -0.43913,-10.41206c0,-2.81803 0.43913,-8.00465 0.43913,-8.00465c0,0 1.06435,-1.68519 1.71033,-1.68519c0.7721,0 2.61172,1.68519 2.61172,1.68519c0,0 -0.64716,4.8672 -0.64716,7.52316c0,3.32944 0.64716,10.89354 0.64716,10.89354c0,0 -1.69682,1.50463 -2.44994,1.50463c-0.68011,0 -1.87212,-1.50463 -1.87212,-1.50463z" fill="#ffffff"/><path d="M345.58828,156.1019l-0.75227,-20.31123c0,0 3.70818,3.66716 4.47623,7.4733c0.42102,2.08639 0.50754,12.83794 0.50754,12.83794z" fill="#af5218"/><path d="M348.03316,143.64245c0,6.41376 -4.92573,11.61314 -11.00192,11.61314c-6.07619,0 -11.00192,-5.19938 -11.00192,-11.61314c0,-3.45162 1.42657,-6.55154 3.69128,-8.67866c0.98507,-0.92521 -0.64916,4.45708 0.46167,8.69233c1.08087,4.12096 4.90083,7.08585 6.28476,7.08585c1.60497,0 4.67194,-0.7158 6.18297,-4.57996c1.61586,-4.13224 1.65492,-11.39233 2.69737,-10.12309c1.67324,2.03727 2.68579,4.69558 2.68579,7.60352z" fill="#af5218"/><path d="M364.62282,153.04658v-13.49381h3.4238v13.49381z" fill="#66aeff"/><path d="M366.43544,146.19898c0,3.6706 -2.79526,6.6462 -6.2434,6.6462c-3.44814,0 -6.2434,-2.97561 -6.2434,-6.6462c0,-3.6706 2.79526,-6.6462 6.2434,-6.6462c3.44814,0 6.2434,2.97561 6.2434,6.6462z" fill="#66aeff"/><path d="M409.54217,154.46498l-27.06289,-32.82402c0,0 1.60897,-5.95095 3.23618,-7.29257c2.21325,-1.8248 8.83459,-2.65961 8.83459,-2.65961l27.06288,32.82402c0,0 -1.39453,6.48561 -3.3105,8.06529c-2.09211,1.72492 -8.76026,1.88685 -8.76026,1.88685z" fill="#b9ff80"/><path d="M386.61316,153.67597c-1.91597,-1.57968 -3.3105,-8.06529 -3.3105,-8.06529l27.06291,-32.82402c0,0 6.62135,0.83481 8.83459,2.65959c1.62721,1.34161 3.23618,7.29256 3.23618,7.29256l-27.06289,32.82402c0,0 -6.66815,-0.16197 -8.76026,-1.88686z" data-paper-data="{&quot;index&quot;:null}" fill="#b9ff80"/><path d="M413.23585,131.91061c0,6.51805 -4.85383,11.80195 -10.84134,11.80195c-5.98749,0 -10.84134,-5.28392 -10.84134,-11.80195c0,-6.51805 4.85383,-11.80195 10.84134,-11.80195c5.98749,0 10.84134,5.28392 10.84134,11.80195z" fill="#b9ff80"/></g></g></g></svg>