<svg version="1.1" xmlns="http://www.w3.org/2000/svg" xmlns:xlink="http://www.w3.org/1999/xlink" width="373.08928" height="106.11667" viewBox="0,0,373.08928,106.11667"><g transform="translate(-53.45536,-126.94166)"><g data-paper-data="{&quot;isPaintingLayer&quot;:true}" fill-rule="nonzero" stroke="#000000" stroke-width="2" stroke-linecap="butt" stroke-linejoin="miter" stroke-miterlimit="10" stroke-dasharray="" stroke-dashoffset="0" style="mix-blend-mode: normal"><path d="M377.6875,185.97961l-1.14286,-30.85714c0,0 5.63352,5.5712 6.80036,11.35355c0.63962,3.16967 0.77107,19.5036 0.77107,19.5036z" fill="#af5218"/><path d="M280.25891,158.12247c0,0 -4,-4.04082 -4,-6c0,-1.46939 4,-4.71428 4,-4.71428c0,0 16.11124,-1.71429 24.28572,-1.71429c8.43632,0 25.57143,1.71429 25.57143,1.71429c0,0 1.85714,3.44809 1.85714,5.14285c0,1.86107 -1.85714,5.57143 -1.85714,5.57143c0,0 -15.73379,1.85714 -23.85714,1.85714c-8.48033,0 -26,-1.85714 -26,-1.85714z" fill="#af5218"/><path d="M239.63371,180.69574l25.56074,0.3295c0,0 2.10487,3.0481 2.08853,4.31524c-0.02221,1.7235 -2.2097,5.08451 -2.2097,5.08451l-25.56074,-0.3295c0,0 -2.43333,-3.1573 -2.4141,-4.64931c0.021,-1.62917 2.53527,-4.75045 2.53527,-4.75045z" fill="#ffffff"/><path d="M233.77657,164.55289l25.56074,0.3295c0,0 2.10487,3.04809 2.08854,4.31524c-0.02222,1.7235 -2.20971,5.08452 -2.20971,5.08452l-25.56074,-0.3295c0,0 -2.43333,-3.1573 -2.4141,-4.64931c0.021,-1.62917 2.53527,-4.75045 2.53527,-4.75045z" fill="#ffffff"/><path d="M235.77657,145.41003l25.56074,0.32949c0,0 2.10487,3.0481 2.08854,4.31524c-0.02222,1.7235 -2.20971,5.08452 -2.20971,5.08452l-25.56074,-0.3295c0,0 -2.43333,-3.1573 -2.4141,-4.64931c0.021,-1.62917 2.53527,-4.75044 2.53527,-4.75044z" fill="#ffffff"/><path d="M127.95536,188.44167v-33.5h8.5v33.5z" fill="#66aeff"/><path d="M55.20536,164.94167v-37h12v37z" fill="#ff6666"/><path d="M92.70536,171.06667c0,10.70051 -8.56256,19.375 -19.125,19.375c-10.56244,0 -19.125,-8.67449 -19.125,-19.375c0,-10.70051 8.56256,-19.375 19.125,-19.375c10.56244,0 19.125,8.67449 19.125,19.375z" fill="#ff6666"/><path d="M132.45536,171.44167c0,9.1127 -6.93958,16.5 -15.5,16.5c-8.56042,0 -15.5,-7.3873 -15.5,-16.5c0,-9.1127 6.93958,-16.5 15.5,-16.5c8.56042,0 15.5,7.3873 15.5,16.5z" fill="#66aeff"/><path d="M152.70536,188.19167v-38.75c0,0 4.57901,-3.25 6.5,-3.25c2.61283,0 7.75,3.25 7.75,3.25v38.75c0,0 -4.73812,3.75 -7,3.75c-2.46981,0 -7.25,-3.75 -7.25,-3.75z" fill="#ffffff"/><path d="M175.20536,188.94167v-38.75c0,0 4.57901,-3.25 6.5,-3.25c2.61283,0 7.75,3.25 7.75,3.25v38.75c0,0 -4.73812,3.75 -7,3.75c-2.46981,0 -7.25,-3.75 -7.25,-3.75z" fill="#ffffff"/><path d="M197.25893,162.12247v-17.14286h14.71428c0,0 0,9.56842 0,12.71428c0,1.85663 -1.14285,9.57143 -1.14285,9.57143c0,0 -0.79521,-1.91562 -1.93548,-3.29047c-0.98028,-1.18194 -2.25286,-1.85238 -3.06451,-1.85238c-2.61973,0 -8.57143,0 -8.57143,0z" fill="#ffffff"/><path d="M226.20276,190.12247c0,0 -1.51525,-16.98321 -1.51525,-24.71428c0,-6.68893 1.51525,-19 1.51525,-19c0,0 3.67256,-4 5.90152,-4c2.66413,0 9.01179,4 9.01179,4c0,0 -2.23301,11.55287 -2.23301,17.85714c0,7.90282 2.23301,25.85715 2.23301,25.85715c0,0 -5.8549,3.57143 -8.45354,3.57143c-2.34674,0 -6.45978,-3.57143 -6.45978,-3.57143z" fill="#ffffff"/><path d="M272.11607,189.69389c0,0 -1.57143,-15.68898 -1.57143,-23c0,-6.43365 1.57143,-18.57143 1.57143,-18.57143h12.28572c0,0 2,12.83982 2,20c0,6.66083 -2,21.57143 -2,21.57143c0,0 -3.46265,1.85715 -5.28572,1.85715c-2.20067,0 -7,-1.85715 -7,-1.85715z" fill="#af5218"/><path d="M286.6875,152.05104c0,4.14213 -3.58172,7.5 -8,7.5c-4.41828,0 -8,-3.35787 -8,-7.5c0,-4.14213 3.58172,-7.5 8,-7.5c4.41828,0 8,3.35787 8,7.5z" fill="#af5218"/><path d="M298.6875,190.69389c0,0 -1.57143,-15.68898 -1.57143,-23c0,-6.43365 1.57143,-18.57143 1.57143,-18.57143h12.28571c0,0 2,12.83982 2,20c0,6.66083 -2,21.57143 -2,21.57143c0,0 -3.46265,1.85715 -5.28571,1.85715c-2.20067,0 -7,-1.85715 -7,-1.85715z" fill="#af5218"/><path d="M313.25891,153.05104c0,4.14213 -3.58172,7.5 -8,7.5c-4.41828,0 -8,-3.35787 -8,-7.5c0,-4.14213 3.58172,-7.5 8,-7.5c4.41828,0 8,3.35787 8,7.5z" fill="#af5218"/><path d="M325.11607,191.26533c0,0 -1.57143,-15.68898 -1.57143,-23c0,-6.43365 1.57143,-18.57142 1.57143,-18.57142h12.28572c0,0 2,12.83982 2,20c0,6.66083 -2,21.57142 -2,21.57142c0,0 -3.46265,1.85715 -5.28572,1.85715c-2.20067,0 -7,-1.85715 -7,-1.85715z" fill="#af5218"/><path d="M339.6875,153.62247c0,4.14213 -3.58172,7.5 -8,7.5c-4.41828,0 -8,-3.35787 -8,-7.5c0,-4.14213 3.58172,-7.5 8,-7.5c4.41828,0 8,3.35787 8,7.5z" fill="#af5218"/><path d="M381.40179,167.05103c0,9.74388 -7.48324,17.64286 -16.71429,17.64286c-9.23105,0 -16.71429,-7.89898 -16.71429,-17.64286c0,-5.24375 2.16726,-9.9532 5.60785,-13.18475c1.49653,-1.4056 -0.98622,6.77127 0.70138,13.20552c1.64207,6.26063 7.44542,10.76494 9.54791,10.76494c2.4383,0 7.09768,-1.08746 9.39326,-6.95795c2.45484,-6.27777 2.51418,-17.3074 4.09788,-15.37915c2.54201,3.09505 4.08029,7.1336 4.08029,11.55138z" fill="#af5218"/><path d="M390.59821,186.40818c0,0 0.13144,-16.33393 0.77106,-19.5036c1.16684,-5.78234 6.80036,-11.35354 6.80036,-11.35354l-1.14286,30.85714z" data-paper-data="{&quot;index&quot;:null}" fill="#66aeff"/><path d="M410.04464,145.37023c8.56041,0 15.5,7.3873 15.5,16.5c0,9.1127 -6.93959,16.5 -15.5,16.5c-8.56042,0 -15.5,-7.3873 -15.5,-16.5c0,-9.1127 6.93958,-16.5 15.5,-16.5z" data-paper-data="{&quot;index&quot;:null}" fill="#66aeff"/><path d="M257.64544,216.53445c0,0 -2.01041,1.02836 -2.99336,1.03944c-0.73721,0.00831 -2.38215,-0.97885 -2.38215,-0.97885c0,0 -0.92826,-4.04031 -0.96285,-6.09519c-0.0357,-2.1207 0.75188,-6.43777 0.75188,-6.43777c0,0 1.7221,-0.48634 2.57239,-0.49593c0.93373,-0.01052 2.80313,0.43534 2.80313,0.43534c0,0 0.99833,3.94462 1.03271,5.98664c0.03589,2.13176 -0.82173,6.54632 -0.82173,6.54632z" fill="#af5218"/><path d="M137.43167,218.22929v-18.56521h6.02115v18.56521z" fill="#ff6666"/><path d="M156.24776,221.30258c0,5.36912 -4.29637,9.72165 -9.59621,9.72165c-5.29984,0 -9.59621,-4.35253 -9.59621,-9.72165c0,-5.36912 4.29637,-9.72165 9.59621,-9.72165c5.29984,0 9.59621,4.35253 9.59621,9.72165z" fill="#ff6666"/><path d="M174.0012,229.88921l-0.57344,-15.48296c0,0 2.82669,2.79542 3.41217,5.69679c0.32094,1.59042 0.38689,9.78618 0.38689,9.78618z" fill="#af5218"/><path d="M175.8649,220.39157c0,4.88911 -3.75481,8.85253 -8.3866,8.85253c-4.6318,0 -8.3866,-3.96341 -8.3866,-8.85253c0,-2.63112 1.08745,-4.99414 2.81381,-6.61561c0.7509,-0.70528 -0.49485,3.39757 0.35193,6.62604c0.82393,3.14135 3.73583,5.40144 4.79078,5.40144c1.22345,0 3.56135,-0.54565 4.71319,-3.49124c1.23175,-3.14995 1.26152,-8.6842 2.05616,-7.71668c1.27549,1.55298 2.04734,3.57937 2.04734,5.79605z" fill="#af5218"/><path d="M183.49348,227.56207v-19.4433c0,0 2.29758,-1.63073 3.26146,-1.63073c1.31102,0 3.88866,1.63073 3.88866,1.63073v19.4433c0,0 -2.37741,1.88161 -3.51234,1.88161c-1.23926,0 -3.63778,-1.88161 -3.63778,-1.88161z" fill="#ffffff"/><path d="M190.18215,201.84102c0,1.69041 -1.37035,3.06075 -3.06075,3.06075c-1.69041,0 -3.06075,-1.37035 -3.06075,-3.06075c0,-1.69041 1.37035,-3.06075 3.06075,-3.06075c1.69041,0 3.06075,1.37035 3.06075,3.06075z" fill="#66aeff"/><path d="M196.79019,228.69103v-19.4433c0,0 2.29758,-1.63073 3.26146,-1.63073c1.31102,0 3.88866,1.63073 3.88866,1.63073v19.4433c0,0 -2.37741,1.88161 -3.51234,1.88161c-1.23926,0 -3.63778,-1.88161 -3.63778,-1.88161z" fill="#ffffff"/><path d="M220.09706,218.8314v-18.56521h6.02115v18.56521z" data-paper-data="{&quot;index&quot;:null}" fill="#ff6666"/><path d="M216.89832,212.18305c5.29984,0 9.59621,4.35253 9.59621,9.72165c0,5.36912 -4.29637,9.72165 -9.59621,9.72165c-5.29984,0 -9.59621,-4.35253 -9.59621,-9.72165c0,-5.36912 4.29637,-9.72165 9.59621,-9.72165z" data-paper-data="{&quot;index&quot;:null}" fill="#ff6666"/><path d="M254.98896,214.37281c0,0 -1.22893,-2.02753 -1.22893,-3.01058c0,-0.73728 1.22893,-2.36545 1.22893,-2.36545c0,0 4.94991,-0.86017 7.46138,-0.86017c2.59192,0 7.85639,0.86017 7.85639,0.86017c0,0 0.57057,1.73012 0.57057,2.58049c0,0.93382 -0.57057,2.79553 -0.57057,2.79553c0,0 -4.83394,0.93184 -7.3297,0.93184c-2.60544,0 -7.98806,-0.93184 -7.98806,-0.93184z" fill="#af5218"/><path d="M251.78165,230.51522c0,0 -0.78848,-7.87214 -0.78848,-11.54054c0,-3.22816 0.78848,-9.31845 0.78848,-9.31845h6.16451c0,0 1.00353,6.44254 1.00353,10.03525c0,3.34215 -1.00353,10.82374 -1.00353,10.82374c0,0 -1.73743,0.93185 -2.65218,0.93185c-1.10421,0 -3.51234,-0.93185 -3.51234,-0.93185z" fill="#af5218"/><path d="M259.09303,211.62745c0,2.07837 -1.79717,3.76322 -4.0141,3.76322c-2.21693,0 -4.0141,-1.68485 -4.0141,-3.76322c0,-2.07837 1.79717,-3.76322 4.0141,-3.76322c2.21693,0 4.0141,1.68485 4.0141,3.76322z" fill="#af5218"/><path d="M265.11419,231.01698c0,0 -0.78848,-7.87214 -0.78848,-11.54054c0,-3.22816 0.78848,-9.31845 0.78848,-9.31845h6.16451c0,0 1.00353,6.44254 1.00353,10.03525c0,3.34215 -1.00353,10.82374 -1.00353,10.82374c0,0 -1.73743,0.93185 -2.65217,0.93185c-1.10421,0 -3.51234,-0.93185 -3.51234,-0.93185z" fill="#af5218"/><path d="M272.42559,212.12921c0,2.07837 -1.79717,3.76322 -4.0141,3.76322c-2.21693,0 -4.0141,-1.68485 -4.0141,-3.76322c0,-2.07837 1.79717,-3.76322 4.0141,-3.76322c2.21693,0 4.0141,1.68485 4.0141,3.76322z" fill="#af5218"/><path d="M240.37969,212.90097v-8.60164h7.38307c0,0 0,4.80107 0,6.37955c0,0.93159 -0.57344,4.80259 -0.57344,4.80259c0,0 -0.39901,-0.96119 -0.97115,-1.65103c-0.49187,-0.59305 -1.1304,-0.92945 -1.53766,-0.92945c-1.31448,0 -4.30082,0 -4.30082,0z" fill="#ffffff"/><path d="M294.33262,217.10952l12.59453,0.16235c0,0 1.03713,1.50188 1.02909,2.12625c-0.01095,0.84922 -1.08879,2.50529 -1.08879,2.50529l-12.59453,-0.16235c0,0 -1.19897,-1.5557 -1.1895,-2.29085c0.01035,-0.80274 1.2492,-2.34069 1.2492,-2.34069z" fill="#ffffff"/><path d="M295.31808,207.67726l12.59453,0.16235c0,0 1.03713,1.50189 1.02909,2.12625c-0.01095,0.84922 -1.08879,2.50529 -1.08879,2.50529l-12.59453,-0.16235c0,0 -1.19897,-1.5557 -1.1895,-2.29085c0.01035,-0.80274 1.2492,-2.34068 1.2492,-2.34068z" fill="#ffffff"/><path d="M290.60077,229.70841c0,0 -0.74661,-8.36813 -0.74661,-12.17746c0,-3.29583 0.74661,-9.36186 0.74661,-9.36186c0,0 1.80958,-1.97092 2.90785,-1.97092c1.3127,0 4.44038,1.97092 4.44038,1.97092c0,0 -1.10027,5.69244 -1.10027,8.79874c0,3.89395 1.10027,12.74058 1.10027,12.74058c0,0 -2.88488,1.75975 -4.16531,1.75975c-1.15631,0 -3.18293,-1.75975 -3.18293,-1.75975z" fill="#ffffff"/><path d="M311.82228,230.2106v-19.09327c0,0 2.25621,-1.60137 3.20274,-1.60137c1.28742,0 3.81865,1.60137 3.81865,1.60137v19.09327c0,0 -2.33461,1.84774 -3.44911,1.84774c-1.21695,0 -3.57229,-1.84774 -3.57229,-1.84774z" fill="#ffffff"/><path d="M318.39053,204.95259c0,1.65997 -1.34568,3.00565 -3.00565,3.00565c-1.65997,0 -3.00565,-1.34568 -3.00565,-3.00565c0,-1.65997 1.34568,-3.00565 3.00565,-3.00565c1.65997,0 3.00565,1.34568 3.00565,3.00565z" fill="#66aeff"/><path d="M337.17842,229.83963l-12.14611,-14.73177c0,0 0.72212,-2.67085 1.45243,-3.27298c0.99333,-0.81899 3.96506,-1.19366 3.96506,-1.19366l12.14611,14.73177c0,0 -0.62588,2.91081 -1.48579,3.61979c-0.93896,0.77416 -3.9317,0.84684 -3.9317,0.84684z" fill="#ffffff"/><path d="M326.88764,229.48552c-0.85991,-0.70898 -1.48579,-3.61979 -1.48579,-3.61979l12.14612,-14.73177c0,0 2.97173,0.37467 3.96506,1.19365c0.73031,0.60213 1.45243,3.27298 1.45243,3.27298l-12.14611,14.73177c0,0 -2.99274,-0.07269 -3.9317,-0.84684z" data-paper-data="{&quot;index&quot;:null}" fill="#ffffff"/><path d="M338.83619,219.71699c0,2.92537 -2.17845,5.29684 -4.86571,5.29684c-2.68725,0 -4.86571,-2.37148 -4.86571,-5.29684c0,-2.92537 2.17845,-5.29684 4.86571,-5.29684c2.68725,0 4.86571,2.37148 4.86571,5.29684z" fill="#ffffff"/></g></g></svg>