<svg version="1.1" xmlns="http://www.w3.org/2000/svg" xmlns:xlink="http://www.w3.org/1999/xlink" width="71" height="61.17147" viewBox="0,0,71,61.17147"><g transform="translate(-204.5,-142.67002)"><g data-paper-data="{&quot;isPaintingLayer&quot;:true}" fill-rule="nonzero" stroke="#000000" stroke-linejoin="miter" stroke-miterlimit="10" stroke-dasharray="" stroke-dashoffset="0" style="mix-blend-mode: normal"><path d="M222.98512,157.93787l0.1369,-14.36905" fill="none" stroke-width="1.5" stroke-linecap="round"/><path d="M260.18155,158.43192l0.10119,-15.0119" fill="none" stroke-width="1.5" stroke-linecap="round"/><path d="M210.75,198.09149c0,0 -6,-14.12834 -6,-20.68524c0,-5.9438 6,-16.99774 6,-16.99774c0,0 18.9862,-4 28.5,-4c10.26273,0 31,4 31,4c0,0 5,11.8641 5,17.99774c0,6.41475 -5,19.68524 -5,19.68524c0,0 -20.04202,5.5 -30,5.5c-9.87465,0 -29.5,-5.5 -29.5,-5.5z" fill="#6bffb2" stroke-width="0.5" stroke-linecap="butt"/><path d="M235.92762,165.91781c0,0 -0.55469,0.46947 -0.82589,0.47453c-0.2034,0.00379 -0.65725,-0.44687 -0.65725,-0.44687c0,0 -0.25612,-1.84448 -0.26566,-2.78258c-0.00985,-0.96814 0.20745,-2.93897 0.20745,-2.93897c0,0 0.47514,-0.22202 0.70974,-0.2264c0.25763,-0.00481 0.7734,0.19874 0.7734,0.19874c0,0 0.27545,1.8008 0.28494,2.73302c0.0099,0.97319 -0.22672,2.98853 -0.22672,2.98853z" fill="#af5218" stroke-width="0.5" stroke-linecap="butt"/><path d="M235.19468,165.50914c0,0 -0.33907,-0.55941 -0.33907,-0.83064c0,-0.20342 0.33907,-0.65265 0.33907,-0.65265c0,0 1.36572,-0.23733 2.05865,-0.23733c0.71513,0 2.16764,0.23733 2.16764,0.23733c0,0 0.15743,0.47736 0.15743,0.71198c0,0.25765 -0.15743,0.77131 -0.15743,0.77131c0,0 -1.33372,0.2571 -2.02232,0.2571c-0.71886,0 -2.20397,-0.2571 -2.20397,-0.2571z" fill="#af5218" stroke-width="0.5" stroke-linecap="butt"/><path d="M234.30976,169.96295c0,0 -0.21754,-2.17199 -0.21754,-3.18413c0,-0.89068 0.21754,-2.57103 0.21754,-2.57103h1.70084c0,0 0.27688,1.77755 0.27688,2.7688c0,0.92212 -0.27688,2.98636 -0.27688,2.98636c0,0 -0.47937,0.25711 -0.73176,0.25711c-0.30466,0 -0.96908,-0.25711 -0.96908,-0.25711z" fill="#af5218" stroke-width="0.5" stroke-linecap="butt"/><path d="M236.32702,164.75167c0,0.57344 -0.49585,1.0383 -1.10752,1.0383c-0.61167,0 -1.10752,-0.46486 -1.10752,-1.0383c0,-0.57344 0.49585,-1.0383 1.10752,-1.0383c0.61167,0 1.10752,0.46486 1.10752,1.0383z" fill="#af5218" stroke-width="0.5" stroke-linecap="butt"/><path d="M237.98831,170.10139c0,0 -0.21754,-2.17199 -0.21754,-3.18413c0,-0.89068 0.21754,-2.57103 0.21754,-2.57103h1.70084c0,0 0.27688,1.77755 0.27688,2.7688c0,0.92212 -0.27688,2.98636 -0.27688,2.98636c0,0 -0.47937,0.25711 -0.73176,0.25711c-0.30466,0 -0.96908,-0.25711 -0.96908,-0.25711z" fill="#af5218" stroke-width="0.5" stroke-linecap="butt"/><path d="M240.00558,164.89011c0,0.57344 -0.49585,1.0383 -1.10752,1.0383c-0.61167,0 -1.10752,-0.46486 -1.10752,-1.0383c0,-0.57344 0.49585,-1.0383 1.10752,-1.0383c0.61167,0 1.10752,0.46486 1.10752,1.0383z" fill="#af5218" stroke-width="0.5" stroke-linecap="butt"/><path d="M241.77243,170.01376c0,0 0.02709,-3.36612 0.1589,-4.01933c0.24046,-1.19163 1.40143,-2.33975 1.40143,-2.33975l-0.23552,6.35908z" data-paper-data="{&quot;index&quot;:null}" fill="#66aeff" stroke-width="0.5" stroke-linecap="butt"/><path d="M245.77998,161.55661c1.76414,0 3.19426,1.52238 3.19426,3.40034c0,1.87796 -1.43012,3.40034 -3.19426,3.40034c-1.76414,0 -3.19426,-1.52238 -3.19426,-3.40034c0,-1.87796 1.43012,-3.40034 3.19426,-3.40034z" data-paper-data="{&quot;index&quot;:null}" fill="#66aeff" stroke-width="0.5" stroke-linecap="butt"/></g></g></svg>