<svg version="1.1" xmlns="http://www.w3.org/2000/svg" xmlns:xlink="http://www.w3.org/1999/xlink" width="373.08929" height="131.81625" viewBox="0,0,373.08929,131.81625"><g transform="translate(-53.45544,-127.66542)"><g data-paper-data="{&quot;isPaintingLayer&quot;:true}" fill-rule="nonzero" stroke="#000000" stroke-width="2" stroke-linecap="butt" stroke-linejoin="miter" stroke-miterlimit="10" stroke-dasharray="" stroke-dashoffset="0" style="mix-blend-mode: normal"><path d="M377.68758,205.16187l-1.14286,-30.85714c0,0 5.63352,5.5712 6.80036,11.35355c0.63962,3.16967 0.77107,19.5036 0.77107,19.5036z" fill="#af5218"/><path d="M280.25892,177.30472c0,0 -4,-4.04082 -4,-6c0,-1.46939 4,-4.71428 4,-4.71428c0,0 16.11124,-1.71429 24.28572,-1.71429c8.43632,0 25.57143,1.71429 25.57143,1.71429c0,0 1.85714,3.44809 1.85714,5.14285c0,1.86107 -1.85714,5.57143 -1.85714,5.57143c0,0 -15.73379,1.85714 -23.85714,1.85714c-8.48033,0 -26,-1.85714 -26,-1.85714z" fill="#af5218"/><path d="M239.6338,199.878l25.56074,0.3295c0,0 2.10487,3.0481 2.08853,4.31524c-0.02221,1.7235 -2.2097,5.08451 -2.2097,5.08451l-25.56074,-0.3295c0,0 -2.43333,-3.1573 -2.4141,-4.64931c0.021,-1.62917 2.53527,-4.75045 2.53527,-4.75045z" fill="#ffffff"/><path d="M233.77664,183.73514l25.56074,0.3295c0,0 2.10487,3.04809 2.08854,4.31524c-0.02222,1.7235 -2.20971,5.08452 -2.20971,5.08452l-25.56074,-0.3295c0,0 -2.43333,-3.1573 -2.4141,-4.64931c0.021,-1.62917 2.53527,-4.75045 2.53527,-4.75045z" fill="#ffffff"/><path d="M235.77664,164.59229l25.56074,0.32949c0,0 2.10487,3.0481 2.08854,4.31524c-0.02222,1.7235 -2.20971,5.08452 -2.20971,5.08452l-25.56074,-0.3295c0,0 -2.43333,-3.1573 -2.4141,-4.64931c0.021,-1.62917 2.53527,-4.75044 2.53527,-4.75044z" fill="#ffffff"/><path d="M127.95544,207.62392v-33.5h8.5v33.5z" fill="#66aeff"/><path d="M55.20542,184.12392v-37h12v37z" fill="#ff6666"/><path d="M92.70544,190.24892c0,10.70051 -8.56256,19.375 -19.125,19.375c-10.56244,0 -19.125,-8.67449 -19.125,-19.375c0,-10.70051 8.56256,-19.375 19.125,-19.375c10.56244,0 19.125,8.67449 19.125,19.375z" fill="#ff6666"/><path d="M132.45543,190.62392c0,9.1127 -6.93958,16.5 -15.5,16.5c-8.56042,0 -15.5,-7.3873 -15.5,-16.5c0,-9.1127 6.93958,-16.5 15.5,-16.5c8.56042,0 15.5,7.3873 15.5,16.5z" fill="#66aeff"/><path d="M152.70543,207.37392v-38.75c0,0 4.57901,-3.25 6.5,-3.25c2.61283,0 7.75,3.25 7.75,3.25v38.75c0,0 -4.73812,3.75 -7,3.75c-2.46981,0 -7.25,-3.75 -7.25,-3.75z" fill="#ffffff"/><path d="M175.20544,208.12392v-38.75c0,0 4.57901,-3.25 6.5,-3.25c2.61283,0 7.75,3.25 7.75,3.25v38.75c0,0 -4.73812,3.75 -7,3.75c-2.46981,0 -7.25,-3.75 -7.25,-3.75z" fill="#ffffff"/><path d="M197.259,181.30472v-17.14286h14.71428c0,0 0,9.56842 0,12.71428c0,1.85663 -1.14285,9.57143 -1.14285,9.57143c0,0 -0.79521,-1.91562 -1.93548,-3.29047c-0.98028,-1.18194 -2.25286,-1.85238 -3.06451,-1.85238c-2.61973,0 -8.57143,0 -8.57143,0z" fill="#ffffff"/><path d="M226.20285,209.30472c0,0 -1.51525,-16.98321 -1.51525,-24.71428c0,-6.68893 1.51525,-19 1.51525,-19c0,0 3.67256,-4 5.90152,-4c2.66413,0 9.01179,4 9.01179,4c0,0 -2.23301,11.55287 -2.23301,17.85714c0,7.90282 2.23301,25.85715 2.23301,25.85715c0,0 -5.8549,3.57143 -8.45354,3.57143c-2.34674,0 -6.45978,-3.57143 -6.45978,-3.57143z" fill="#ffffff"/><path d="M272.11609,208.87615c0,0 -1.57143,-15.68898 -1.57143,-23c0,-6.43365 1.57143,-18.57143 1.57143,-18.57143h12.28572c0,0 2,12.83982 2,20c0,6.66083 -2,21.57143 -2,21.57143c0,0 -3.46265,1.85715 -5.28572,1.85715c-2.20067,0 -7,-1.85715 -7,-1.85715z" fill="#af5218"/><path d="M286.68755,171.2333c0,4.14213 -3.58172,7.5 -8,7.5c-4.41828,0 -8,-3.35787 -8,-7.5c0,-4.14213 3.58172,-7.5 8,-7.5c4.41828,0 8,3.35787 8,7.5z" fill="#af5218"/><path d="M298.68755,209.87615c0,0 -1.57143,-15.68898 -1.57143,-23c0,-6.43365 1.57143,-18.57143 1.57143,-18.57143h12.28571c0,0 2,12.83982 2,20c0,6.66083 -2,21.57143 -2,21.57143c0,0 -3.46265,1.85715 -5.28571,1.85715c-2.20067,0 -7,-1.85715 -7,-1.85715z" fill="#af5218"/><path d="M313.25892,172.2333c0,4.14213 -3.58172,7.5 -8,7.5c-4.41828,0 -8,-3.35787 -8,-7.5c0,-4.14213 3.58172,-7.5 8,-7.5c4.41828,0 8,3.35787 8,7.5z" fill="#af5218"/><path d="M325.11609,210.44759c0,0 -1.57143,-15.68898 -1.57143,-23c0,-6.43365 1.57143,-18.57142 1.57143,-18.57142h12.28572c0,0 2,12.83982 2,20c0,6.66083 -2,21.57142 -2,21.57142c0,0 -3.46265,1.85715 -5.28572,1.85715c-2.20067,0 -7,-1.85715 -7,-1.85715z" fill="#af5218"/><path d="M339.68758,172.80472c0,4.14213 -3.58172,7.5 -8,7.5c-4.41828,0 -8,-3.35787 -8,-7.5c0,-4.14213 3.58172,-7.5 8,-7.5c4.41828,0 8,3.35787 8,7.5z" fill="#af5218"/><path d="M381.40187,186.2333c0,9.74388 -7.48324,17.64286 -16.71429,17.64286c-9.23105,0 -16.71429,-7.89898 -16.71429,-17.64286c0,-5.24375 2.16726,-9.9532 5.60785,-13.18475c1.49653,-1.4056 -0.98622,6.77127 0.70138,13.20552c1.64207,6.26063 7.44542,10.76494 9.54791,10.76494c2.4383,0 7.09768,-1.08746 9.39326,-6.95795c2.45484,-6.27777 2.51418,-17.3074 4.09788,-15.37915c2.54201,3.09505 4.08029,7.1336 4.08029,11.55138z" fill="#af5218"/><path d="M390.59829,205.59043c0,0 0.13144,-16.33393 0.77106,-19.5036c1.16684,-5.78234 6.80036,-11.35354 6.80036,-11.35354l-1.14286,30.85714z" data-paper-data="{&quot;index&quot;:null}" fill="#66aeff"/><path d="M410.04473,164.55247c8.56041,0 15.5,7.3873 15.5,16.5c0,9.1127 -6.93959,16.5 -15.5,16.5c-8.56042,0 -15.5,-7.3873 -15.5,-16.5c0,-9.1127 6.93958,-16.5 15.5,-16.5z" data-paper-data="{&quot;index&quot;:null}" fill="#66aeff"/><g><g><path d="M313.44216,146.58316l0.51515,-15.70561c0,0 1.89911,-1.25637 2.6777,-1.23083c1.059,0.03473 3.09792,1.42027 3.09792,1.42027l-0.51515,15.70561c0,0 -1.97024,1.45691 -2.88699,1.42684c-1.00103,-0.03283 -2.88861,-1.61628 -2.88861,-1.61628z" fill="#ffffff"/><path d="M304.06381,147.62804l0.51515,-10.24181c0,0 1.8991,-0.8193 2.67769,-0.80264c1.059,0.02265 3.09792,0.92618 3.09792,0.92618l-0.51515,10.2418c0,0 -1.97024,0.95007 -2.887,0.93045c-1.00103,-0.02141 -2.88861,-1.054 -2.88861,-1.054z" fill="#ffffff"/><path d="M292.32309,145.60225l0.51514,-15.70561c0,0 1.89911,-1.25637 2.6777,-1.23084c1.059,0.03474 3.09792,1.42028 3.09792,1.42028l-0.51515,15.70561c0,0 -1.97024,1.45691 -2.887,1.42684c-1.00103,-0.03283 -2.88861,-1.61628 -2.88861,-1.61628z" fill="#ffffff"/><path d="M319.68625,152.0332c0,0 -10.45643,0.72355 -15.20794,0.62899c-4.11102,-0.08181 -11.65888,-1.16367 -11.65888,-1.16367c0,0 -2.41348,-2.30608 -2.38621,-3.676c0.03259,-1.63737 2.56863,-5.48973 2.56863,-5.48973c0,0 7.07309,1.51371 10.94769,1.59083c4.85708,0.09666 15.91913,-1.05614 15.91913,-1.05614c0,0 2.12339,3.6421 2.09161,5.23923c-0.0287,1.44231 -2.27401,3.9265 -2.27401,3.9265z" fill="#ffffff"/><path d="M335.94344,151.92202v-12.6018h3.19747v12.6018z" fill="#66aeff"/><path d="M337.63623,145.52707c0,3.42795 -2.61049,6.20686 -5.83068,6.20686c-3.2202,0 -5.83068,-2.77891 -5.83068,-6.20686c0,-3.42795 2.61049,-6.20686 5.83068,-6.20686c3.2202,0 5.83068,2.77891 5.83068,6.20686z" fill="#66aeff"/><path d="M352.77841,152.29051l-5.50739,-6.6798c0,0 0.32743,-1.21103 0.65857,-1.48405c0.45041,-0.37135 1.79787,-0.54124 1.79787,-0.54124l5.50739,6.6798c0,0 -0.28379,1.31984 -0.6737,1.64132c-0.42575,0.35103 -1.78275,0.38399 -1.78275,0.38399z" fill="#ffffff"/><path d="M347.29265,145.77782c-0.38991,-0.32147 -0.6737,-1.64132 -0.6737,-1.64132l5.50739,-6.6798c0,0 1.34747,0.16988 1.79787,0.54123c0.33114,0.27302 0.65858,1.48406 0.65858,1.48406l-5.50739,6.6798c0,0 -1.35699,-0.03296 -1.78274,-0.38398z" data-paper-data="{&quot;index&quot;:null}" fill="#ffffff"/><path d="M344.5087,151.06027v-12.53938c0,0 1.48175,-1.05169 2.10338,-1.05169c0.84551,0 2.50787,1.05169 2.50787,1.05169v12.53938c0,0 -1.53324,1.21349 -2.26517,1.21349c-0.79922,0 -2.34608,-1.21349 -2.34608,-1.21349z" fill="#ffffff"/><path d="M367.44794,152.38306v-12.6018h3.19747v12.6018z" fill="#66aeff"/><path d="M369.14074,145.98812c0,3.42795 -2.61049,6.20686 -5.83068,6.20686c-3.2202,0 -5.83068,-2.77891 -5.83068,-6.20686c0,-3.42795 2.61049,-6.20686 5.83068,-6.20686c3.2202,0 5.83068,2.77891 5.83068,6.20686z" fill="#66aeff"/><path d="M378.9847,142.23343c0,0 -1.28532,-1.29845 -1.28532,-1.92799c0,-0.47216 1.28532,-1.51484 1.28532,-1.51484c0,0 5.17706,-0.55086 7.80378,-0.55086c2.71086,0 8.21692,0.55086 8.21692,0.55086c0,0 0.59676,1.10798 0.59676,1.65256c0,0.59802 -0.59676,1.79028 -0.59676,1.79028c0,0 -5.05577,0.59676 -7.66607,0.59676c-2.725,0 -8.35463,-0.59676 -8.35463,-0.59676z" fill="#af5218"/><path d="M376.36815,152.37834c0,0 -0.50495,-5.04138 -0.50495,-7.39064c0,-2.06734 0.50495,-5.9676 0.50495,-5.9676h3.94779c0,0 0.64266,4.12585 0.64266,6.42665c0,2.14034 -0.64266,6.93159 -0.64266,6.93159c0,0 -1.11266,0.59676 -1.69847,0.59676c-0.70714,0 -2.24932,-0.59676 -2.24932,-0.59676z" fill="#af5218"/><path d="M381.05042,140.28248c0,1.331 -1.15092,2.40999 -2.57066,2.40999c-1.41974,0 -2.57066,-1.07899 -2.57066,-2.40999c0,-1.331 1.15092,-2.41 2.57066,-2.41c1.41974,0 2.57066,1.07899 2.57066,2.41z" fill="#af5218"/><path d="M384.90642,152.69967c0,0 -0.50495,-5.04137 -0.50495,-7.39064c0,-2.06734 0.50495,-5.9676 0.50495,-5.9676h3.94779c0,0 0.64266,4.12585 0.64266,6.42664c0,2.14034 -0.64266,6.93159 -0.64266,6.93159c0,0 -1.11266,0.59676 -1.69847,0.59676c-0.70714,0 -2.24932,-0.59676 -2.24932,-0.59676z" fill="#af5218"/><path d="M389.58865,140.60382c0,1.331 -1.15092,2.40999 -2.57066,2.40999c-1.41974,0 -2.57066,-1.07899 -2.57066,-2.40999c0,-1.331 1.15092,-2.41 2.57066,-2.41c1.41974,0 2.57066,1.07899 2.57066,2.41z" fill="#af5218"/><path d="M393.39874,152.8833c0,0 -0.50495,-5.04138 -0.50495,-7.39064c0,-2.06734 0.50495,-5.96759 0.50495,-5.96759h3.94779c0,0 0.64266,4.12585 0.64266,6.42664c0,2.14034 -0.64266,6.93159 -0.64266,6.93159c0,0 -1.11266,0.59676 -1.69847,0.59676c-0.70714,0 -2.24932,-0.59676 -2.24932,-0.59676z" fill="#af5218"/><path d="M398.08102,140.78743c0,1.331 -1.15092,2.41 -2.57066,2.41c-1.41974,0 -2.57065,-1.07899 -2.57065,-2.41c0,-1.331 1.15092,-2.40999 2.57065,-2.40999c1.41974,0 2.57066,1.07899 2.57066,2.40999z" fill="#af5218"/><path d="M405.32177,149.43169l9.08165,0.11707c0,0 0.74786,1.08298 0.74205,1.53318c-0.0079,0.61235 -0.7851,1.80652 -0.7851,1.80652l-9.08165,-0.11707c0,0 -0.86454,-1.12178 -0.85772,-1.65187c0.00746,-0.57884 0.90077,-1.68782 0.90077,-1.68782z" fill="#ffffff"/><path d="M403.24074,143.69617l9.08165,0.11707c0,0 0.74786,1.08298 0.74206,1.53318c-0.0079,0.61235 -0.7851,1.80652 -0.7851,1.80652l-9.08165,-0.11708c0,0 -0.86455,-1.12178 -0.85772,-1.65187c0.00746,-0.57884 0.90077,-1.68781 0.90077,-1.68781z" fill="#ffffff"/><path d="M403.95134,136.89478l9.08165,0.11708c0,0 0.74786,1.08298 0.74206,1.53318c-0.0079,0.61235 -0.7851,1.80652 -0.7851,1.80652l-9.08165,-0.11707c0,0 -0.86455,-1.12178 -0.85772,-1.65187c0.00746,-0.57884 0.90077,-1.68782 0.90077,-1.68782z" fill="#ffffff"/><path d="M400.54979,152.78096c0,0 -0.53836,-6.03406 -0.53836,-8.7809c0,-2.37655 0.53836,-6.75063 0.53836,-6.75063c0,0 1.30485,-1.4212 2.09679,-1.4212c0.94656,0 3.20185,1.4212 3.20185,1.4212c0,0 -0.79339,4.10469 -0.79339,6.34457c0,2.80784 0.79339,9.18695 0.79339,9.18695c0,0 -2.08022,1.26892 -3.00351,1.26892c-0.83379,0 -2.29513,-1.26892 -2.29513,-1.26892z" fill="#ffffff"/></g><path d="M276.06582,146.98919v-6.75776h2.1917v6.75776z" data-paper-data="{&quot;index&quot;:null}" fill="#ff6666"/><path d="M274.90146,144.56918c1.92915,0 3.49303,1.58432 3.49303,3.53869c0,1.95437 -1.56389,3.53869 -3.49303,3.53869c-1.92915,0 -3.49303,-1.58432 -3.49303,-3.53869c0,-1.95437 1.56388,-3.53869 3.49303,-3.53869z" data-paper-data="{&quot;index&quot;:null}" fill="#ff6666"/><path d="M256.97673,148.16266c0,0.58634 0.47016,2.0148 1.87129,2.4837c1.41977,0.47513 3.76854,-0.01055 3.42638,0.39513c-0.76028,0.9014 -1.85179,1.46641 -3.06453,1.46641c-2.29713,0 -4.15934,-2.0272 -4.15934,-4.52787c0,-2.50068 1.8622,-4.52788 4.15934,-4.52788c1.27393,0 2.41409,0.62347 3.17706,1.6054c0.37041,0.47672 -2.5055,0.37408 -4.18841,1.04224c-1.1013,0.43725 -1.22179,1.62228 -1.22179,2.06288z" fill="#b9ff80"/><path d="M266.7739,144.75183c1.92915,0 3.49303,1.58432 3.49303,3.53869c0,1.95437 -1.56389,3.53869 -3.49303,3.53869c-1.92915,0 -3.49303,-1.58432 -3.49303,-3.53869c0,-1.95437 1.56388,-3.53869 3.49303,-3.53869z" data-paper-data="{&quot;index&quot;:null}" fill="#ff6666"/><path d="M282.54566,149.34026l4.66847,0.06018c0,0 0.38444,0.55671 0.38145,0.78814c-0.00406,0.31478 -0.40358,0.92865 -0.40358,0.92865l-4.66847,-0.06018c0,0 -0.44443,-0.57666 -0.44092,-0.84916c0.00384,-0.29756 0.46305,-0.86763 0.46305,-0.86763z" fill="#ffffff"/><path d="M281.47589,146.3919l4.66847,0.06018c0,0 0.38444,0.55671 0.38146,0.78814c-0.00406,0.31478 -0.40358,0.92865 -0.40358,0.92865l-4.66847,-0.06018c0,0 -0.44443,-0.57666 -0.44092,-0.84916c0.00384,-0.29756 0.46305,-0.86763 0.46305,-0.86763z" fill="#ffffff"/><path d="M281.84117,142.8956l4.66847,0.06018c0,0 0.38444,0.55671 0.38146,0.78814c-0.00406,0.31478 -0.40358,0.92865 -0.40358,0.92865l-4.66847,-0.06018c0,0 -0.44443,-0.57666 -0.44092,-0.84916c0.00384,-0.29756 0.46305,-0.86763 0.46305,-0.86763z" fill="#ffffff"/><path d="M280.09259,151.06198c0,0 -0.27675,-3.10185 -0.27675,-4.51387c0,-1.22168 0.27675,-3.4702 0.27675,-3.4702c0,0 0.67077,-0.73057 1.07786,-0.73057c0.48658,0 1.64593,0.73057 1.64593,0.73057c0,0 -0.40784,2.11004 -0.40784,3.26147c0,1.44339 0.40784,4.7226 0.40784,4.7226c0,0 -1.06935,0.65229 -1.54397,0.65229c-0.42861,0 -1.17982,-0.65229 -1.17982,-0.65229z" fill="#ffffff"/></g><path d="M142.34572,245.9515c0,0 -4.54903,1.5429 -6.78754,1.36718c-2.19151,-0.17203 -6.50551,-2.41068 -6.50551,-2.41068c0,0 -1.01353,-1.99821 -0.971,-2.79978c0.05785,-1.09026 1.28648,-3.14634 1.28648,-3.14634c0,0 3.83664,3.11408 5.95805,3.28061c2.29582,0.18022 7.335,-2.23712 7.335,-2.23712c0,0 1.18153,2.07806 1.13145,3.02188c-0.05468,1.03058 -1.44693,2.92423 -1.44693,2.92423z" fill="#ffffff"/><path d="M165.60513,257.02019v-20.5h5.20149v20.5z" fill="#66aeff"/><path d="M168.35889,246.61721c0,5.57643 -4.24661,10.09701 -9.48507,10.09701c-5.23847,0 -9.48507,-4.52059 -9.48507,-10.09701c0,-5.57643 4.24661,-10.09701 9.48507,-10.09701c5.23847,0 9.48507,4.52059 9.48507,10.09701z" fill="#66aeff"/><path d="M80.93203,246.60173c0,0 4.72892,4.17343 7.34789,4.20719c3.00881,0.03879 9.69823,-3.98745 9.69823,-3.98745c0,0 1.40371,2.03273 1.39282,2.87778c-0.01482,1.14938 -1.47363,3.3908 -1.47363,3.3908c0,0 -6.69574,3.3564 -9.7334,3.31724c-2.56353,-0.03305 -7.31272,-3.53698 -7.31272,-3.53698c0,0 -1.62276,-2.10556 -1.60993,-3.10056c0.014,-1.08647 1.69074,-3.16801 1.69074,-3.16801z" data-paper-data="{&quot;index&quot;:null}" fill="#ffffff"/><path d="M89.04584,232.39069c0,0 4.92042,-2.37753 7.66955,-2.34209c2.92232,0.03767 9.37656,2.56182 9.37656,2.56182c0,0 1.40371,2.03274 1.39282,2.87778c-0.01482,1.14938 -1.47363,3.3908 -1.47363,3.3908c0,0 -6.09482,-2.85296 -8.95149,-2.88979c-2.82501,-0.03642 -8.09462,2.67005 -8.09462,2.67005c0,0 -1.62276,-2.10556 -1.60993,-3.10056c0.014,-1.08647 1.69074,-3.168 1.69074,-3.168z" data-paper-data="{&quot;index&quot;:null}" fill="#ffffff"/><path d="M96.97274,251.20243c0,0 -4.79601,-3.60975 -6.85422,-5.56315c-1.78076,-1.69008 -4.78363,-5.48205 -4.78363,-5.48205c0,0 -0.39922,-2.66211 0.0048,-3.6644c0.4829,-1.19797 2.69837,-3.04164 2.69837,-3.04164c0,0 2.67091,3.92315 4.34927,5.51604c2.10393,1.99679 7.28858,5.52916 7.28858,5.52916c0,0 -0.11045,3.53515 -0.58148,4.70367c-0.42537,1.05525 -2.1217,2.00237 -2.1217,2.00237z" data-paper-data="{&quot;index&quot;:null}" fill="#ffffff"/><path d="M126.03576,255.01223v-16.2029c0,0 1.91466,-1.35895 2.71791,-1.35895c1.09253,0 3.24058,1.35895 3.24058,1.35895v16.2029c0,0 -1.98119,1.56802 -2.92697,1.56802c-1.03272,0 -3.03151,-1.56802 -3.03151,-1.56802z" fill="#ffffff"/><path d="M110.26025,249.17319c0,1.04149 0.83512,3.57877 3.32385,4.41164c2.52184,0.84394 6.6938,-0.01874 6.08606,0.70183c-1.35043,1.6011 -3.28921,2.60469 -5.44332,2.60469c-4.08024,0 -7.38796,-3.60079 -7.38796,-8.04257c0,-4.4418 3.3077,-8.04257 7.38796,-8.04257c2.26279,0 4.28798,1.10743 5.6432,2.85157c0.65793,0.84676 -4.45036,0.66446 -7.4396,1.85126c-1.95617,0.77665 -2.17018,2.88156 -2.17018,3.66416z" fill="#b9ff80"/><path d="M183.29118,255.20849c0,0 -0.52576,-8.56629 -0.52576,-12.46582c0,-3.37388 0.52576,-9.58355 0.52576,-9.58355c0,0 1.27429,-2.01759 2.04769,-2.01759c0.92439,0 3.12688,2.01759 3.12688,2.01759c0,0 -0.7748,5.82724 -0.7748,9.00709c0,3.98616 0.7748,13.04227 0.7748,13.04227c0,0 -2.03151,1.80142 -2.93318,1.80142c-0.81426,0 -2.24139,-1.80142 -2.24139,-1.80142z" fill="#ffffff"/><path d="M193.47703,241.42681l-13.68427,-0.88312c0,0 -1.04336,-1.69111 -0.99958,-2.36949c0.05955,-0.9227 1.32434,-2.66279 1.32434,-2.66279l13.68427,0.88312c0,0 1.2163,1.75869 1.16475,2.55746c-0.05629,0.87219 -1.48952,2.47482 -1.48952,2.47482z" fill="#ffffff"/><path d="M200.01026,249.17318c0,1.04149 0.83512,3.57877 3.32385,4.41164c2.52184,0.84394 6.6938,-0.01874 6.08606,0.70183c-1.35043,1.6011 -3.28921,2.60469 -5.44332,2.60469c-4.08024,0 -7.38796,-3.60079 -7.38796,-8.04257c0,-4.4418 3.3077,-8.04257 7.38796,-8.04257c2.26279,0 4.28798,1.10743 5.6432,2.85157c0.65793,0.84676 -4.45036,0.66446 -7.4396,1.85126c-1.95617,0.77665 -2.17018,2.88156 -2.17018,3.66416z" fill="#b9ff80"/><path d="M219.40853,245.31015c0,0 -1.53471,1.29892 -2.28506,1.31292c-0.56277,0.01049 -1.81848,-1.23639 -1.81848,-1.23639c0,0 -0.70862,-5.10328 -0.73502,-7.6988c-0.02725,-2.67863 0.57396,-8.1315 0.57396,-8.1315c0,0 1.31461,-0.61427 1.96371,-0.6264c0.7128,-0.0133 2.13984,0.54988 2.13984,0.54988c0,0 0.7621,4.98243 0.78836,7.56168c0.0274,2.6926 -0.62729,8.26862 -0.62729,8.26862z" fill="#af5218"/><path d="M217.38063,244.17944c0,0 -0.93814,-1.54778 -0.93814,-2.29821c0,-0.56283 0.93814,-1.80574 0.93814,-1.80574c0,0 3.77866,-0.65664 5.69585,-0.65664c1.97861,0 5.99739,0.65664 5.99739,0.65664c0,0 0.43557,1.32074 0.43557,1.96989c0,0.71285 -0.43557,2.13405 -0.43557,2.13405c0,0 -3.69012,0.71134 -5.59533,0.71134c-1.98893,0 -6.09791,-0.71134 -6.09791,-0.71134z" fill="#af5218"/><path d="M214.93224,256.50219c0,0 -0.6019,-6.00943 -0.6019,-8.8098c0,-2.46431 0.6019,-7.1135 0.6019,-7.1135h4.70585c0,0 0.76607,4.91809 0.76607,7.66069c0,2.55132 -0.76607,8.26261 -0.76607,8.26261c0,0 -1.32631,0.71136 -2.02462,0.71136c-0.84294,0 -2.68125,-0.71136 -2.68125,-0.71136z" fill="#af5218"/><path d="M220.51359,242.0837c0,1.58658 -1.37192,2.87276 -3.06428,2.87276c-1.69236,0 -3.06428,-1.28617 -3.06428,-2.87276c0,-1.58658 1.37192,-2.87276 3.06428,-2.87276c1.69236,0 3.06428,1.28617 3.06428,2.87276z" fill="#af5218"/><path d="M225.11001,256.88524c0,0 -0.6019,-6.00943 -0.6019,-8.8098c0,-2.46431 0.6019,-7.1135 0.6019,-7.1135h4.70585c0,0 0.76607,4.91809 0.76607,7.66069c0,2.55132 -0.76607,8.26261 -0.76607,8.26261c0,0 -1.32631,0.71136 -2.02461,0.71136c-0.84294,0 -2.68125,-0.71136 -2.68125,-0.71136z" fill="#af5218"/><path d="M230.69138,242.46673c0,1.58658 -1.37192,2.87276 -3.06428,2.87276c-1.69236,0 -3.06428,-1.28617 -3.06428,-2.87276c0,-1.58658 1.37192,-2.87276 3.06428,-2.87276c1.69236,0 3.06428,1.28617 3.06428,2.87276z" fill="#af5218"/><path d="M366.65711,246.2416c0,5.76128 -4.38738,10.43172 -9.7995,10.43172c-5.41211,0 -9.79949,-4.67044 -9.79949,-10.43172c0,-5.76128 4.38737,-10.43172 9.79949,-10.43172c5.41211,0 9.7995,4.67044 9.7995,10.43172z" fill="#66aeff"/><path d="M377.98514,242.67707c0,0 -1.99838,1.02221 -2.97543,1.03322c-0.7328,0.00826 -2.36789,-0.973 -2.36789,-0.973c0,0 -0.92271,-4.01612 -0.95709,-6.05871c-0.03548,-2.108 0.74737,-6.39922 0.74737,-6.39922c0,0 1.71179,-0.48341 2.55699,-0.49296c0.92815,-0.01047 2.78634,0.43273 2.78634,0.43273c0,0 0.99235,3.92101 1.02654,5.9508c0.03568,2.11899 -0.81681,6.50713 -0.81681,6.50713z" fill="#af5218"/><path d="M375.34455,240.52835c0,0 -1.22157,-2.0154 -1.22157,-2.99256c0,-0.73287 1.22157,-2.3513 1.22157,-2.3513c0,0 4.92029,-0.85503 7.4167,-0.85503c2.5764,0 7.80935,0.85503 7.80935,0.85503c0,0 0.56717,1.71977 0.56717,2.56504c0,0.92822 -0.56717,2.7788 -0.56717,2.7788c0,0 -4.80499,0.92625 -7.28582,0.92625c-2.58983,0 -7.94024,-0.92625 -7.94024,-0.92625z" fill="#af5218"/><path d="M372.15645,256.57412c0,0 -0.78375,-7.82502 -0.78375,-11.47145c0,-3.20884 0.78375,-9.26266 0.78375,-9.26266h6.1276c0,0 0.99752,6.40396 0.99752,9.97517c0,3.32214 -0.99752,10.75895 -0.99752,10.75895c0,0 -1.72702,0.92628 -2.63631,0.92628c-1.09761,0 -3.49132,-0.92628 -3.49132,-0.92628z" fill="#af5218"/><path d="M379.42407,237.79945c0,2.06592 -1.78641,3.74069 -3.99007,3.74069c-2.20366,0 -3.99007,-1.67475 -3.99007,-3.74069c0,-2.06592 1.78641,-3.74069 3.99007,-3.74069c2.20366,0 3.99007,1.67475 3.99007,3.74069z" fill="#af5218"/><path d="M385.40918,257.07288c0,0 -0.78375,-7.82502 -0.78375,-11.47145c0,-3.20884 0.78375,-9.26266 0.78375,-9.26266h6.1276c0,0 0.99752,6.40396 0.99752,9.97517c0,3.32214 -0.99752,10.75895 -0.99752,10.75895c0,0 -1.72702,0.92628 -2.63629,0.92628c-1.09761,0 -3.49132,-0.92628 -3.49132,-0.92628z" fill="#af5218"/><path d="M392.67681,238.2982c0,2.06592 -1.78641,3.74069 -3.99007,3.74069c-2.20366,0 -3.99007,-1.67475 -3.99007,-3.74069c0,-2.06592 1.78641,-3.74069 3.99007,-3.74069c2.20366,0 3.99007,1.67475 3.99007,3.74069z" fill="#af5218"/><path d="M333.32821,254.47091v-17.00347c0,0 2.00927,-1.4261 2.8522,-1.4261c1.14651,0 3.40069,1.4261 3.40069,1.4261v17.00347c0,0 -2.07908,1.6455 -3.0716,1.6455c-1.08375,0 -3.1813,-1.6455 -3.1813,-1.6455z" fill="#ffffff"/><path d="M339.17757,231.97746c0,1.47829 -1.19839,2.67667 -2.67667,2.67667c-1.47829,0 -2.67667,-1.19839 -2.67667,-2.67667c0,-1.47829 1.19839,-2.67667 2.67667,-2.67667c1.47829,0 2.67667,1.19839 2.67667,2.67667z" fill="#66aeff"/><path d="M281.38514,245.37828v-16.23556h5.26559v16.23556z" data-paper-data="{&quot;index&quot;:null}" fill="#ff6666"/><path d="M278.58778,239.56419c4.63479,0 8.39203,3.80636 8.39203,8.50173c0,4.69538 -3.75724,8.50173 -8.39203,8.50173c-4.63479,0 -8.39203,-3.80636 -8.39203,-8.50173c0,-4.69538 3.75724,-8.50173 8.39203,-8.50173z" data-paper-data="{&quot;index&quot;:null}" fill="#ff6666"/><path d="M295.13709,253.58053v-16.69736c0,0 1.97309,-1.40042 2.80085,-1.40042c1.12587,0 3.33947,1.40042 3.33947,1.40042v16.69736c0,0 -2.04165,1.61588 -3.0163,1.61588c-1.06424,0 -3.12402,-1.61588 -3.12402,-1.61588z" fill="#ffffff"/><path d="M300.8811,231.49201c0,1.45167 -1.17682,2.62849 -2.62849,2.62849c-1.45167,0 -2.62849,-1.17682 -2.62849,-2.62849c0,-1.45167 1.17682,-2.62849 2.62849,-2.62849c1.45167,0 2.62849,1.17682 2.62849,2.62849z" fill="#66aeff"/><path d="M250.21644,250.96904l14.77358,0.19045c0,0 1.21658,1.76174 1.20713,2.4941c-0.01285,0.99613 -1.27716,2.93876 -1.27716,2.93876l-14.77358,-0.19045c0,0 -1.4064,-1.82486 -1.3953,-2.68719c0.01213,-0.94163 1.46533,-2.74566 1.46533,-2.74566z" fill="#ffffff"/><path d="M246.83113,241.63879l14.77358,0.19045c0,0 1.21658,1.76174 1.20715,2.4941c-0.01285,0.99613 -1.27716,2.93876 -1.27716,2.93876l-14.77358,-0.19045c0,0 -1.4064,-1.82486 -1.3953,-2.68719c0.01213,-0.94163 1.46533,-2.74566 1.46533,-2.74566z" fill="#ffffff"/><path d="M247.98708,230.57462l14.77358,0.19045c0,0 1.21658,1.76174 1.20715,2.4941c-0.01285,0.99613 -1.27716,2.93876 -1.27716,2.93876l-14.77358,-0.19045c0,0 -1.4064,-1.82486 -1.3953,-2.68719c0.01213,-0.94163 1.46533,-2.74566 1.46533,-2.74566z" fill="#ffffff"/><path d="M242.45363,256.41748c0,0 -0.87578,-9.81593 -0.87578,-14.28434c0,-3.86606 0.87578,-10.9816 0.87578,-10.9816c0,0 2.12267,-2.31193 3.41095,-2.31193c1.53982,0 5.20862,2.31193 5.20862,2.31193c0,0 -1.29065,6.6773 -1.29065,10.32103c0,4.56766 1.29065,14.94488 1.29065,14.94488c0,0 -3.38401,2.06422 -4.88597,2.06422c-1.35637,0 -3.7336,-2.06422 -3.7336,-2.06422z" fill="#ffffff"/><path d="M313.64596,254.03422c0,0 -0.66714,-10.86996 -0.66714,-15.81816c0,-4.28119 0.66714,-12.16079 0.66714,-12.16079c0,0 1.61698,-2.56017 2.59836,-2.56017c1.17298,0 3.96777,2.56017 3.96777,2.56017c0,0 -0.98317,7.39432 -0.98317,11.4293c0,5.05813 0.98317,16.54964 0.98317,16.54964c0,0 -2.57784,2.28586 -3.72198,2.28586c-1.03324,0 -2.84416,-2.28586 -2.84416,-2.28586z" fill="#ffffff"/><path d="M326.57101,236.54633l-17.36429,-1.12062c0,0 -1.32394,-2.14589 -1.26839,-3.0067c0.07556,-1.17084 1.68048,-3.37887 1.68048,-3.37887l17.36429,1.12062c0,0 1.54339,2.23165 1.47798,3.24522c-0.07143,1.10675 -1.89008,3.14035 -1.89008,3.14035z" fill="#ffffff"/></g></g></svg>