<svg version="1.1" xmlns="http://www.w3.org/2000/svg" xmlns:xlink="http://www.w3.org/1999/xlink" width="71" height="61.17147" viewBox="0,0,71,61.17147"><g transform="translate(-204.5,-142.67003)"><g data-paper-data="{&quot;isPaintingLayer&quot;:true}" fill-rule="nonzero" stroke="#000000" stroke-linejoin="miter" stroke-miterlimit="10" stroke-dasharray="" stroke-dashoffset="0" style="mix-blend-mode: normal"><path d="M222.98512,157.93788l0.1369,-14.36905" fill="none" stroke-width="1.5" stroke-linecap="round"/><path d="M260.18155,158.43193l0.10119,-15.0119" fill="none" stroke-width="1.5" stroke-linecap="round"/><path d="M210.75,198.0915c0,0 -6,-14.12834 -6,-20.68524c0,-5.9438 6,-16.99774 6,-16.99774c0,0 18.9862,-4 28.5,-4c10.26273,0 31,4 31,4c0,0 5,11.8641 5,17.99774c0,6.41475 -5,19.68524 -5,19.68524c0,0 -20.04202,5.5 -30,5.5c-9.87465,0 -29.5,-5.5 -29.5,-5.5z" fill="#6bffb2" stroke-width="0.5" stroke-linecap="butt"/><g stroke-width="0.5" stroke-linecap="butt"><path d="M252.62072,166.62643l2.9596,0.03816c0,0 0.24372,0.35293 0.24183,0.49965c-0.00257,0.19956 -0.25586,0.58872 -0.25586,0.58872l-2.9596,-0.03815c0,0 -0.28175,-0.36557 -0.27952,-0.53833c0.00243,-0.18864 0.29355,-0.55004 0.29355,-0.55004z" fill="#ffffff"/><path d="M251.94254,164.75729l2.9596,0.03815c0,0 0.24372,0.35293 0.24183,0.49965c-0.00257,0.19956 -0.25586,0.58872 -0.25586,0.58872l-2.9596,-0.03815c0,0 -0.28174,-0.36557 -0.27952,-0.53833c0.00243,-0.18864 0.29355,-0.55004 0.29355,-0.55004z" fill="#ffffff"/><path d="M252.17412,162.5408l2.9596,0.03815c0,0 0.24372,0.35293 0.24183,0.49965c-0.00257,0.19956 -0.25586,0.58873 -0.25586,0.58873l-2.9596,-0.03816c0,0 -0.28175,-0.36557 -0.27952,-0.53833c0.00243,-0.18864 0.29355,-0.55004 0.29355,-0.55004z" fill="#ffffff"/><path d="M251.06559,167.71792c0,0 -0.17544,-1.96643 -0.17544,-2.86159c0,-0.77449 0.17544,-2.19995 0.17544,-2.19995c0,0 0.42524,-0.46315 0.68332,-0.46315c0.30847,0 1.04345,0.46315 1.04345,0.46315c0,0 -0.25855,1.33767 -0.25855,2.06762c0,0.91504 0.25855,2.99392 0.25855,2.99392c0,0 -0.67792,0.41353 -0.97881,0.41353c-0.27172,0 -0.74796,-0.41353 -0.74796,-0.41353z" fill="#ffffff"/><path d="M223.27759,165.68033c0,0 1.45839,1.28708 2.26607,1.29749c0.92791,0.01196 2.99091,-1.22972 2.99091,-1.22972c0,0 0.4329,0.62689 0.42954,0.8875c-0.00457,0.35447 -0.45446,1.04571 -0.45446,1.04571c0,0 -2.06495,1.03511 -3.00176,1.02303c-0.79058,-0.01019 -2.25522,-1.0908 -2.25522,-1.0908c0,0 -0.50045,-0.64935 -0.4965,-0.9562c0.00432,-0.33506 0.52142,-0.977 0.52142,-0.977z" data-paper-data="{&quot;index&quot;:null}" fill="#ffffff"/><path d="M225.77986,161.29769c0,0 1.51744,-0.73322 2.36527,-0.72229c0.90123,0.01162 2.8917,0.79006 2.8917,0.79006c0,0 0.4329,0.62689 0.42954,0.8875c-0.00457,0.35447 -0.45446,1.04571 -0.45446,1.04571c0,0 -1.87962,-0.87984 -2.76062,-0.8912c-0.87122,-0.01123 -2.49636,0.82344 -2.49636,0.82344c0,0 -0.50046,-0.64935 -0.4965,-0.9562c0.00432,-0.33506 0.52142,-0.977 0.52142,-0.977z" data-paper-data="{&quot;index&quot;:null}" fill="#ffffff"/><path d="M228.2245,167.09918c0,0 -1.47908,-1.11323 -2.11383,-1.71566c-0.54918,-0.52122 -1.47526,-1.69065 -1.47526,-1.69065c0,0 -0.12312,-0.82099 0.00148,-1.13009c0.14892,-0.36945 0.83217,-0.93803 0.83217,-0.93803c0,0 0.82369,1.20989 1.3413,1.70113c0.64885,0.6158 2.24778,1.70518 2.24778,1.70518c0,0 -0.03406,1.09023 -0.17932,1.4506c-0.13118,0.32543 -0.65433,0.61752 -0.65433,0.61752z" data-paper-data="{&quot;index&quot;:null}" fill="#ffffff"/><path d="M233.01623,166.03647c0,0.32119 0.25755,1.10369 1.02506,1.36054c0.77773,0.26027 2.06435,-0.00578 1.87693,0.21644c-0.41647,0.49378 -1.01438,0.80328 -1.6787,0.80328c-1.25833,0 -2.27843,-1.11047 -2.27843,-2.4803c0,-1.36984 1.02009,-2.48031 2.27843,-2.48031c0.69784,0 1.3224,0.34153 1.74034,0.87942c0.20291,0.26114 -1.37248,0.20492 -2.29435,0.57092c-0.60328,0.23952 -0.66928,0.88867 -0.66928,1.13002z" fill="#b9ff80"/><path d="M249.59325,164.94011c0,0 -1.40291,0.47582 -2.09326,0.42164c-0.67585,-0.05305 -2.00628,-0.74345 -2.00628,-0.74345c0,0 -0.31257,-0.61624 -0.29946,-0.86345c0.01784,-0.33623 0.39675,-0.97032 0.39675,-0.97032c0,0 1.18321,0.96037 1.83745,1.01173c0.70802,0.05558 2.26209,-0.68992 2.26209,-0.68992c0,0 0.36438,0.64087 0.34894,0.93194c-0.01686,0.31783 -0.44623,0.90183 -0.44623,0.90183z" fill="#ffffff"/><path d="M244.56329,167.73441v-4.99693c0,0 0.59048,-0.4191 0.8382,-0.4191c0.33694,0 0.99938,0.4191 0.99938,0.4191v4.99693c0,0 -0.61099,0.48357 -0.90267,0.48357c-0.31849,0 -0.93491,-0.48357 -0.93491,-0.48357z" fill="#ffffff"/><path d="M243.08443,165.33797c0,1.77676 -1.35306,3.21712 -3.02214,3.21712c-1.66908,0 -3.02213,-1.44035 -3.02213,-3.21712c0,-1.77676 1.35305,-3.21711 3.02213,-3.21711c1.66908,0 3.02214,1.44035 3.02214,3.21711z" fill="#66aeff"/></g></g></g></svg>