<svg version="1.1" xmlns="http://www.w3.org/2000/svg" xmlns:xlink="http://www.w3.org/1999/xlink" width="373.08929" height="67.75223" viewBox="0,0,373.08929,67.75223"><g transform="translate(-53.45536,-146.12388)"><g data-paper-data="{&quot;isPaintingLayer&quot;:true}" fill-rule="nonzero" stroke="#000000" stroke-width="2" stroke-linecap="butt" stroke-linejoin="miter" stroke-miterlimit="10" stroke-dasharray="" stroke-dashoffset="0" style="mix-blend-mode: normal"><path d="M377.6875,205.16183l-1.14286,-30.85714c0,0 5.63352,5.5712 6.80036,11.35355c0.63962,3.16967 0.77107,19.5036 0.77107,19.5036z" fill="#af5218"/><path d="M280.25893,177.30469c0,0 -4,-4.04082 -4,-6c0,-1.46939 4,-4.71428 4,-4.71428c0,0 16.11124,-1.71429 24.28572,-1.71429c8.43632,0 25.57143,1.71429 25.57143,1.71429c0,0 1.85714,3.44809 1.85714,5.14285c0,1.86107 -1.85714,5.57143 -1.85714,5.57143c0,0 -15.73379,1.85714 -23.85714,1.85714c-8.48033,0 -26,-1.85714 -26,-1.85714z" fill="#af5218"/><path d="M239.63371,199.87796l25.56074,0.3295c0,0 2.10487,3.0481 2.08853,4.31524c-0.02221,1.7235 -2.2097,5.08451 -2.2097,5.08451l-25.56074,-0.3295c0,0 -2.43333,-3.1573 -2.4141,-4.64931c0.021,-1.62917 2.53527,-4.75045 2.53527,-4.75045z" fill="#ffffff"/><path d="M233.77657,183.73511l25.56074,0.3295c0,0 2.10487,3.04809 2.08854,4.31524c-0.02222,1.7235 -2.20971,5.08452 -2.20971,5.08452l-25.56074,-0.3295c0,0 -2.43333,-3.1573 -2.4141,-4.64931c0.021,-1.62917 2.53527,-4.75045 2.53527,-4.75045z" fill="#ffffff"/><path d="M235.77657,164.59225l25.56074,0.32949c0,0 2.10487,3.0481 2.08854,4.31524c-0.02222,1.7235 -2.20971,5.08452 -2.20971,5.08452l-25.56074,-0.3295c0,0 -2.43333,-3.1573 -2.4141,-4.64931c0.021,-1.62917 2.53527,-4.75044 2.53527,-4.75044z" fill="#ffffff"/><path d="M127.95536,207.62389v-33.5h8.5v33.5z" fill="#66aeff"/><path d="M55.20536,184.12389v-37h12v37z" fill="#ff6666"/><path d="M92.70536,190.24889c0,10.70051 -8.56256,19.375 -19.125,19.375c-10.56244,0 -19.125,-8.67449 -19.125,-19.375c0,-10.70051 8.56256,-19.375 19.125,-19.375c10.56244,0 19.125,8.67449 19.125,19.375z" fill="#ff6666"/><path d="M132.45536,190.62389c0,9.1127 -6.93958,16.5 -15.5,16.5c-8.56042,0 -15.5,-7.3873 -15.5,-16.5c0,-9.1127 6.93958,-16.5 15.5,-16.5c8.56042,0 15.5,7.3873 15.5,16.5z" fill="#66aeff"/><path d="M152.70536,207.37389v-38.75c0,0 4.57901,-3.25 6.5,-3.25c2.61283,0 7.75,3.25 7.75,3.25v38.75c0,0 -4.73812,3.75 -7,3.75c-2.46981,0 -7.25,-3.75 -7.25,-3.75z" fill="#ffffff"/><path d="M175.20536,208.12389v-38.75c0,0 4.57901,-3.25 6.5,-3.25c2.61283,0 7.75,3.25 7.75,3.25v38.75c0,0 -4.73812,3.75 -7,3.75c-2.46981,0 -7.25,-3.75 -7.25,-3.75z" fill="#ffffff"/><path d="M197.25893,181.30469v-17.14286h14.71428c0,0 0,9.56842 0,12.71428c0,1.85663 -1.14285,9.57143 -1.14285,9.57143c0,0 -0.79521,-1.91562 -1.93548,-3.29047c-0.98028,-1.18194 -2.25286,-1.85238 -3.06451,-1.85238c-2.61973,0 -8.57143,0 -8.57143,0z" fill="#ffffff"/><path d="M226.20276,209.30469c0,0 -1.51525,-16.98321 -1.51525,-24.71428c0,-6.68893 1.51525,-19 1.51525,-19c0,0 3.67256,-4 5.90152,-4c2.66413,0 9.01179,4 9.01179,4c0,0 -2.23301,11.55287 -2.23301,17.85714c0,7.90282 2.23301,25.85715 2.23301,25.85715c0,0 -5.8549,3.57143 -8.45354,3.57143c-2.34674,0 -6.45978,-3.57143 -6.45978,-3.57143z" fill="#ffffff"/><path d="M272.11607,208.87611c0,0 -1.57143,-15.68898 -1.57143,-23c0,-6.43365 1.57143,-18.57143 1.57143,-18.57143h12.28572c0,0 2,12.83982 2,20c0,6.66083 -2,21.57143 -2,21.57143c0,0 -3.46265,1.85715 -5.28572,1.85715c-2.20067,0 -7,-1.85715 -7,-1.85715z" fill="#af5218"/><path d="M286.6875,171.23326c0,4.14213 -3.58172,7.5 -8,7.5c-4.41828,0 -8,-3.35787 -8,-7.5c0,-4.14213 3.58172,-7.5 8,-7.5c4.41828,0 8,3.35787 8,7.5z" fill="#af5218"/><path d="M298.6875,209.87611c0,0 -1.57143,-15.68898 -1.57143,-23c0,-6.43365 1.57143,-18.57143 1.57143,-18.57143h12.28571c0,0 2,12.83982 2,20c0,6.66083 -2,21.57143 -2,21.57143c0,0 -3.46265,1.85715 -5.28571,1.85715c-2.20067,0 -7,-1.85715 -7,-1.85715z" fill="#af5218"/><path d="M313.25893,172.23326c0,4.14213 -3.58172,7.5 -8,7.5c-4.41828,0 -8,-3.35787 -8,-7.5c0,-4.14213 3.58172,-7.5 8,-7.5c4.41828,0 8,3.35787 8,7.5z" fill="#af5218"/><path d="M325.11607,210.44755c0,0 -1.57143,-15.68898 -1.57143,-23c0,-6.43365 1.57143,-18.57142 1.57143,-18.57142h12.28572c0,0 2,12.83982 2,20c0,6.66083 -2,21.57142 -2,21.57142c0,0 -3.46265,1.85715 -5.28572,1.85715c-2.20067,0 -7,-1.85715 -7,-1.85715z" fill="#af5218"/><path d="M339.6875,172.80469c0,4.14213 -3.58172,7.5 -8,7.5c-4.41828,0 -8,-3.35787 -8,-7.5c0,-4.14213 3.58172,-7.5 8,-7.5c4.41828,0 8,3.35787 8,7.5z" fill="#af5218"/><path d="M381.40179,186.23326c0,9.74388 -7.48324,17.64286 -16.71429,17.64286c-9.23105,0 -16.71429,-7.89898 -16.71429,-17.64286c0,-5.24375 2.16726,-9.9532 5.60785,-13.18475c1.49653,-1.4056 -0.98622,6.77127 0.70138,13.20552c1.64207,6.26063 7.44542,10.76494 9.54791,10.76494c2.4383,0 7.09768,-1.08746 9.39326,-6.95795c2.45484,-6.27777 2.51418,-17.3074 4.09788,-15.37915c2.54201,3.09505 4.08029,7.1336 4.08029,11.55138z" fill="#af5218"/><path d="M390.59821,205.5904c0,0 0.13144,-16.33393 0.77106,-19.5036c1.16684,-5.78234 6.80036,-11.35354 6.80036,-11.35354l-1.14286,30.85714z" data-paper-data="{&quot;index&quot;:null}" fill="#66aeff"/><path d="M410.04464,164.55246c8.56041,0 15.5,7.3873 15.5,16.5c0,9.1127 -6.93959,16.5 -15.5,16.5c-8.56042,0 -15.5,-7.3873 -15.5,-16.5c0,-9.1127 6.93958,-16.5 15.5,-16.5z" data-paper-data="{&quot;index&quot;:null}" fill="#66aeff"/></g></g></svg>