<svg version="1.1" xmlns="http://www.w3.org/2000/svg" xmlns:xlink="http://www.w3.org/1999/xlink" width="72.64204" height="33.41692" viewBox="0,0,72.64204,33.41692"><g transform="translate(-203.34336,-163.29154)"><g data-paper-data="{&quot;isPaintingLayer&quot;:true}" fill="#00ffff" fill-rule="nonzero" stroke="#000000" stroke-width="2" stroke-linecap="butt" stroke-linejoin="miter" stroke-miterlimit="10" stroke-dasharray="" stroke-dashoffset="0" style="mix-blend-mode: normal"><path d="M211.37461,194.40384c0,0 -1.06,-9.38583 -1.06,-13.78002c0,-3.81277 1.06,-11.08925 1.06,-11.08925c0,0 3.68566,-2.12 5.3,-2.12c1.35806,0 3.75078,2.12 3.75078,2.12c0,0 1.06001,4.85759 1.06001,7.99078c0,4.5881 -1.06001,16.87849 -1.06001,16.87849c0,0 -2.98302,1.30462 -4.48462,1.30462c-1.5152,0 -4.56616,-1.30462 -4.56616,-1.30462z"/><path d="M205.0146,178.9115c0,0 3.32542,-8.08019 7.30514,-11.70969c3.97971,-3.6295 4.33872,-2.60866 6.12341,-0.53715c1.78469,2.07152 2.13646,5.47357 -0.10742,7.51999c-2.24389,2.04642 -13.32113,4.72685 -13.32113,4.72685z"/><path d="M229.23156,191.75383c0,1.1033 -0.9309,1.99769 -2.07923,1.99769c-1.14833,0 -2.07923,-0.8944 -2.07923,-1.99769c0,-1.1033 0.9309,-1.99769 2.07923,-1.99769c1.14833,0 2.07923,0.8944 2.07923,1.99769z"/><path d="M234.78829,191.41876c0,0 -1.80595,-7.29826 -1.80595,-10.96948c0,-3.79381 1.80595,-11.4377 1.80595,-11.4377c0,0 3.09036,-1.27086 4.74899,-1.27086c1.88071,0 5.95296,1.27086 5.95296,1.27086c0,0 1.07019,7.91143 1.07019,11.70524c0,3.67122 -1.07019,10.70194 -1.07019,10.70194c0,0 -3.26758,2.00661 -5.08342,2.00661c-1.74897,0 -5.61852,-2.00661 -5.61852,-2.00661z"/><path d="M236.70039,187.86275c0,0 -1.19036,-4.8105 -1.19036,-7.23031c0,-2.50062 1.19036,-7.53892 1.19036,-7.53892c0,0 2.03694,-0.83766 3.13019,-0.83766c1.23963,0 3.92377,0.83766 3.92377,0.83766c0,0 0.7054,5.21465 0.7054,7.71526c0,2.41981 -0.7054,7.05396 -0.7054,7.05396c0,0 -2.15376,1.32261 -3.35063,1.32261c-1.15279,0 -3.70333,-1.32261 -3.70333,-1.32261z"/><path d="M264.87461,193.90384c0,0 -1.06,-9.38583 -1.06,-13.78002c0,-3.81277 1.06,-11.08925 1.06,-11.08925c0,0 3.68566,-2.12 5.3,-2.12c1.35806,0 3.75078,2.12 3.75078,2.12c0,0 1.06001,4.85759 1.06001,7.99078c0,4.5881 -1.06001,16.87849 -1.06001,16.87849c0,0 -2.98302,1.30462 -4.48462,1.30462c-1.5152,0 -4.56616,-1.30462 -4.56616,-1.30462z"/><path d="M258.51459,178.4115c0,0 3.32542,-8.08019 7.30514,-11.70969c3.97971,-3.6295 4.33872,-2.60866 6.12341,-0.53715c1.78469,2.07152 2.13646,5.47357 -0.10742,7.51999c-2.24389,2.04642 -13.32113,4.72685 -13.32113,4.72685z"/><path d="M255.06489,190.42049c0,1.1033 -0.9309,1.99769 -2.07923,1.99769c-1.14833,0 -2.07923,-0.8944 -2.07923,-1.99769c0,-1.1033 0.9309,-1.99769 2.07923,-1.99769c1.14833,0 2.07923,0.8944 2.07923,1.99769z"/></g></g></svg>