<svg version="1.1" xmlns="http://www.w3.org/2000/svg" xmlns:xlink="http://www.w3.org/1999/xlink" width="518" height="390" viewBox="0,0,518,390"><defs><radialGradient cx="235.5" cy="178.3125" r="259" gradientUnits="userSpaceOnUse" id="color-1"><stop offset="0" stop-color="#006bff"/><stop offset="1" stop-color="#00ff61"/></radialGradient></defs><g transform="translate(23.5,16.6875)"><g data-paper-data="{&quot;isPaintingLayer&quot;:true}" fill-rule="nonzero" stroke-linecap="butt" stroke-linejoin="miter" stroke-miterlimit="10" stroke-dasharray="" stroke-dashoffset="0" style="mix-blend-mode: normal"><path d="M-23.5,373.3125v-390h518v390z" fill="url(#color-1)" stroke="none" stroke-width="0"/><text transform="translate(119.17179,188.76875) scale(0.76002,0.76002)" font-size="40" xml:space="preserve" fill="#ffd266" fill-rule="nonzero" stroke="none" stroke-width="1" stroke-linecap="butt" stroke-linejoin="miter" stroke-miterlimit="10" stroke-dasharray="" stroke-dashoffset="0" font-family="Sans Serif" font-weight="normal" text-anchor="start" style="mix-blend-mode: normal"><tspan x="0" dy="0">YOU ARE DEAD!!!</tspan></text><path d="M66.49514,75.57867c0,0 -2.56812,1.18341 -3.88943,1.21839c-1.29357,0.03425 -3.95697,-1.01064 -3.95697,-1.01064c0,0 -0.71641,-1.10739 -0.74087,-1.57927c-0.03328,-0.64183 0.55938,-1.92119 0.55938,-1.92119c0,0 2.43786,1.5868 3.69005,1.55364c1.35514,-0.03588 4.15635,-1.7614 4.15635,-1.7614c0,0 0.81968,1.14379 0.84848,1.69942c0.03146,0.6067 -0.66699,1.80104 -0.66699,1.80104z" fill="none" stroke="#000000" stroke-width="2"/><path d="M201.75904,37.20586l-2.56938,-17.99428c0,0 3.64112,2.9146 4.68033,6.2279c0.56965,1.81623 1.65252,11.37049 1.65252,11.37049z" fill="none" stroke="#000000" stroke-width="2"/><path d="M143.00595,26.89756c0,0 -2.59057,-2.11928 -2.71122,-3.26624c-0.09049,-0.86022 2.05139,-3.00621 2.05139,-3.00621c0,0 9.32641,-1.99579 14.11199,-2.49921c4.93887,-0.51955 15.07583,-0.5712 15.07583,-0.5712c0,0 1.29957,1.90424 1.40394,2.8964c0.11461,1.08952 -0.74411,3.37605 -0.74411,3.37605c0,0 -9.09664,2.05618 -13.85229,2.55645c-4.96463,0.52226 -15.33552,0.51397 -15.33552,0.51397z" fill="none" stroke="#000000" stroke-width="2"/><path d="M120.61296,42.61448l14.98429,-1.38124c0,0 1.41997,1.65482 1.48844,2.39765c0.09314,1.01035 -0.9805,3.1127 -0.9805,3.1127l-14.98429,1.38124c0,0 -1.61898,-1.69852 -1.69961,-2.57317c-0.08804,-0.95506 1.19167,-2.93718 1.19167,-2.93718z" fill="none" stroke="#000000" stroke-width="2"/><path d="M116.18987,33.5247l14.98429,-1.38124c0,0 1.41997,1.65481 1.48844,2.39764c0.09313,1.01036 -0.9805,3.11271 -0.9805,3.11271l-14.98429,1.38124c0,0 -1.61898,-1.69852 -1.69961,-2.57317c-0.08804,-0.95506 1.19167,-2.93718 1.19167,-2.93718z" fill="none" stroke="#000000" stroke-width="2"/><path d="M116.18183,22.19475l14.98429,-1.38125c0,0 1.41997,1.65482 1.48844,2.39764c0.09313,1.01036 -0.9805,3.11271 -0.9805,3.11271l-14.98429,1.38124c0,0 -1.61898,-1.69852 -1.69961,-2.57317c-0.08804,-0.95506 1.19167,-2.93718 1.19167,-2.93718z" fill="none" stroke="#000000" stroke-width="2"/><path d="M55.71026,54.02681l-2.06308,-19.61187l4.97615,-0.52347l2.06308,19.61187z" fill="none" stroke="#000000" stroke-width="2"/><path d="M11.67307,44.74949l-2.27862,-21.66087l7.02515,-0.73901l2.27862,21.66087z" fill="none" stroke="#000000" stroke-width="2"/><path d="M34.00386,46.02583c0.65898,6.26439 -3.81957,11.87 -10.00313,12.52049c-6.18356,0.65048 -11.73054,-3.9005 -12.38952,-10.16488c-0.65898,-6.26439 3.81957,-11.87 10.00313,-12.52049c6.18356,-0.65048 11.73054,3.9005 12.38952,10.16488z" fill="none" stroke="#000000" stroke-width="2"/><path d="M57.29775,43.79739c0.5612,5.33484 -3.04649,10.08695 -8.05801,10.61413c-5.01152,0.52719 -9.52909,-3.37018 -10.09029,-8.70502c-0.5612,-5.33484 3.04649,-10.08695 8.05801,-10.61413c5.01152,-0.52719 9.52909,3.37018 10.09029,8.70502z" fill="none" stroke="#000000" stroke-width="2"/><path d="M70.18422,52.35624l-2.38639,-22.68537c0,0 2.48054,-2.18464 3.60514,-2.30294c1.52963,-0.16091 4.73722,1.42537 4.73722,1.42537l2.38639,22.68537c0,0 -2.54289,2.48715 -3.86706,2.62645c-1.4459,0.1521 -4.4753,-1.74887 -4.4753,-1.74887z" fill="none" stroke="#000000" stroke-width="2"/><path d="M83.40256,51.40966l-2.38639,-22.68537c0,0 2.48054,-2.18464 3.60514,-2.30294c1.52963,-0.16091 4.73722,1.42537 4.73722,1.42537l2.38639,22.68537c0,0 -2.54289,2.48715 -3.86706,2.62645c-1.4459,0.1521 -4.4753,-1.74887 -4.4753,-1.74887z" fill="none" stroke="#000000" stroke-width="2"/><path d="M94.66171,34.35077l-1.05573,-10.03593l8.61416,-0.90617c0,0 0.58926,5.60163 0.783,7.44331c0.11434,1.08692 -0.07961,5.67377 -0.07961,5.67377c0,0 -0.58351,-1.07249 -1.33573,-1.80714c-0.64667,-0.63157 -1.43297,-0.9457 -1.90813,-0.89571c-1.53367,0.16133 -5.01796,0.52787 -5.01796,0.52787z" fill="none" stroke="#000000" stroke-width="2"/><path d="M113.33063,48.9603c0,0 -1.93297,-9.84915 -2.40908,-14.37514c-0.41193,-3.91589 -0.28303,-11.21646 -0.28303,-11.21646c0,0 1.90369,-2.56789 3.20858,-2.70516c1.55966,-0.16407 5.5221,1.78673 5.5221,1.78673c0,0 -0.59579,6.9009 -0.20755,10.5916c0.48669,4.62654 2.89966,15 2.89966,15c0,0 -3.20768,2.45139 -4.729,2.61142c-1.37385,0.14452 -4.00169,-1.693 -4.00169,-1.693z" fill="none" stroke="#000000" stroke-width="2"/><path d="M140.18321,45.88186c0,0 -1.88616,-9.08801 -2.3364,-13.36809c-0.39621,-3.76644 -0.22375,-10.96903 -0.22375,-10.96903l7.19242,-0.75661c0,0 1.96159,7.39363 2.40254,11.58541c0.4102,3.89944 0.1576,12.75171 0.1576,12.75171c0,0 -1.91276,1.30047 -2.98004,1.41275c-1.28834,0.13553 -4.21237,-0.65614 -4.21237,-0.65614z" fill="none" stroke="#000000" stroke-width="2"/><path d="M146.39554,22.94727c0.25509,2.42492 -1.63496,4.61129 -4.22155,4.88339c-2.58659,0.2721 -4.89022,-1.47312 -5.14531,-3.89804c-0.25509,-2.42492 1.63496,-4.61129 4.22155,-4.88339c2.58659,-0.2721 4.89022,1.47312 5.14531,3.89804z" fill="none" stroke="#000000" stroke-width="2"/><path d="M155.80049,44.8309c0,0 -1.88616,-9.08801 -2.3364,-13.36809c-0.39621,-3.76644 -0.22375,-10.96903 -0.22375,-10.96903l7.19241,-0.75661c0,0 1.96159,7.39363 2.40254,11.58541c0.4102,3.89944 0.1576,12.75171 0.1576,12.75171c0,0 -1.91276,1.30047 -2.98004,1.41275c-1.28834,0.13553 -4.21237,-0.65614 -4.21237,-0.65614z" fill="none" stroke="#000000" stroke-width="2"/><path d="M162.01278,21.89632c0.25509,2.42492 -1.63496,4.61129 -4.22155,4.88339c-2.58659,0.2721 -4.89022,-1.47312 -5.14531,-3.89804c-0.25509,-2.42492 1.63496,-4.61129 4.22155,-4.88339c2.58659,-0.2721 4.89022,1.47312 5.14531,3.89804z" fill="none" stroke="#000000" stroke-width="2"/><path d="M171.30771,43.53785c0,0 -1.88616,-9.08801 -2.3364,-13.36809c-0.39621,-3.76644 -0.22375,-10.96902 -0.22375,-10.96902l7.19242,-0.75661c0,0 1.96159,7.39363 2.40254,11.58541c0.4102,3.89944 0.1576,12.7517 0.1576,12.7517c0,0 -1.91276,1.30047 -2.98004,1.41275c-1.28834,0.13553 -4.21237,-0.65614 -4.21237,-0.65614z" fill="none" stroke="#000000" stroke-width="2"/><path d="M177.52004,20.60326c0.25509,2.42492 -1.63496,4.61129 -4.22155,4.88339c-2.58659,0.2721 -4.89022,-1.47312 -5.14531,-3.89804c-0.25509,-2.42492 1.63496,-4.61129 4.22155,-4.88339c2.58659,-0.2721 4.89022,1.47312 5.14531,3.89804z" fill="none" stroke="#000000" stroke-width="2"/><path d="M202.76778,25.89579c0.60007,5.70435 -3.29438,10.78949 -8.6985,11.35798c-5.40412,0.56849 -10.27148,-3.59495 -10.87155,-9.2993c-0.32293,-3.06984 0.65582,-5.96036 2.47102,-8.06409c0.78955,-0.91504 -0.16036,4.02483 1.22386,7.6877c1.34687,3.56403 5.02172,5.84359 6.25257,5.71411c1.42745,-0.15016 4.08822,-1.07374 5.07058,-4.65186c1.05052,-3.82637 0.40601,-10.28709 1.4519,-9.25576c1.67877,1.65538 2.82804,3.92493 3.1001,6.51123z" fill="none" stroke="#000000" stroke-width="2"/><path d="M209.34373,36.66166c0,0 -0.92897,-9.57045 -0.74972,-11.46546c0.327,-3.45701 3.28193,-7.06549 3.28193,-7.06549l1.23125,18.13504z" data-paper-data="{&quot;index&quot;:null}" fill="none" stroke="#000000" stroke-width="2"/><path d="M218.20094,11.43926c5.01151,-0.52719 9.52909,3.37018 10.09029,8.70502c0.5612,5.33484 -3.04649,10.08695 -8.05801,10.61413c-5.01152,0.52719 -9.52909,-3.37018 -10.09029,-8.70502c-0.5612,-5.33484 3.04649,-10.08695 8.05801,-10.61413z" data-paper-data="{&quot;index&quot;:null}" fill="none" stroke="#000000" stroke-width="2"/><path d="M80.79353,80.62618l-1.26248,-12.00129l3.0451,-0.32033l1.26248,12.00129z" fill="none" stroke="#000000" stroke-width="2"/><path d="M81.76499,74.36639c0.34342,3.2646 -1.86427,6.17261 -4.93102,6.49521c-3.06675,0.32261 -5.83123,-2.06235 -6.17465,-5.32695c-0.34342,-3.2646 1.86427,-6.17261 4.93102,-6.49521c3.06675,-0.32261 5.83123,2.06235 6.17465,5.32695z" fill="none" stroke="#000000" stroke-width="2"/><path d="M30.58183,79.74145c0,0 3.02546,2.15202 4.56076,2.0105c1.76383,-0.16259 5.43206,-2.93163 5.43206,-2.93163c0,0 0.94696,1.10357 0.99262,1.59896c0.06211,0.67379 -0.65389,2.07582 -0.65389,2.07582c0,0 -3.71318,2.37729 -5.49392,2.54143c-1.5028,0.13852 -4.4989,-1.6203 -4.4989,-1.6203c0,0 -1.07968,-1.13272 -1.13345,-1.71601c-0.05871,-0.63691 0.79471,-1.95877 0.79471,-1.95877z" data-paper-data="{&quot;index&quot;:null}" fill="none" stroke="#000000" stroke-width="2"/><path d="M34.45671,70.92222c0,0 2.73414,-1.6949 4.34574,-1.84345c1.71313,-0.15792 5.64708,0.92231 5.64708,0.92231c0,0 0.94696,1.10358 0.99262,1.59896c0.06211,0.67379 -0.65389,2.07582 -0.65389,2.07582c0,0 -3.74378,-1.29486 -5.41843,-1.14049c-1.65609,0.15266 -4.57439,2.06163 -4.57439,2.06163c0,0 -1.07968,-1.13272 -1.13345,-1.71601c-0.05871,-0.63691 0.79471,-1.95876 0.79471,-1.95876z" data-paper-data="{&quot;index&quot;:null}" fill="none" stroke="#000000" stroke-width="2"/><path d="M40.25585,81.44698c0,0 -3.03003,-1.81789 -4.35526,-2.83472c-1.14659,-0.87975 -3.13808,-2.91475 -3.13808,-2.91475c0,0 -0.39766,-1.53389 -0.22286,-2.14554c0.20893,-0.73107 1.39239,-1.94684 1.39239,-1.94684c0,0 1.80523,2.13224 2.88589,2.9614c1.35467,1.03941 4.60745,2.78807 4.60745,2.78807c0,0 0.15305,2.07638 -0.05074,2.78947c-0.18404,0.64397 -1.11879,1.30291 -1.11879,1.30291z" data-paper-data="{&quot;index&quot;:null}" fill="none" stroke="#000000" stroke-width="2"/><path d="M57.50481,81.88752l-0.99784,-9.48565c0,0 1.03721,-0.91348 1.50745,-0.96295c0.6396,-0.06728 1.98082,0.596 1.98082,0.596l0.99784,9.48565c0,0 -1.06328,1.03997 -1.61697,1.09822c-0.60458,0.0636 -1.8713,-0.73127 -1.8713,-0.73127z" fill="none" stroke="#000000" stroke-width="2"/><path d="M47.90978,79.4407c0.06414,0.60972 0.7093,2.04369 2.21757,2.378c1.52833,0.33876 3.91759,-0.4232 3.60618,0.03607c-0.69198,1.0205 -1.76519,1.72742 -3.02627,1.86008c-2.38869,0.25128 -4.54688,-1.65302 -4.82042,-4.25337c-0.27355,-2.60036 1.44113,-4.91206 3.82983,-5.16334c1.3247,-0.13935 2.57851,0.38425 3.4793,1.32186c0.43732,0.4552 -2.56445,0.66307 -4.24135,1.54194c-1.09737,0.57514 -1.09303,1.8206 -1.04483,2.27875z" fill="none" stroke="#000000" stroke-width="2"/><path d="M91.03587,78.47638c0,0 -0.83534,-4.98258 -1.07549,-7.26547c-0.20778,-1.97517 -0.2824,-5.64287 -0.2824,-5.64287c0,0 0.62175,-1.25963 1.07452,-1.30726c0.54116,-0.05693 1.95482,0.98859 1.95482,0.98859c0,0 -0.09472,3.45915 0.10111,5.32073c0.24549,2.33361 1.25679,7.58761 1.25679,7.58761c0,0 -1.07837,1.17971 -1.60623,1.23524c-0.47669,0.05015 -1.42311,-0.91657 -1.42311,-0.91657z" fill="none" stroke="#000000" stroke-width="2"/><path d="M96.15023,69.7809l-8.06555,0.32573c0,0 -0.71496,-0.92577 -0.73111,-1.32561c-0.02196,-0.54384 0.61132,-1.64043 0.61132,-1.64043l8.06555,-0.32573c0,0 0.82036,0.95468 0.83938,1.42548c0.02076,0.51407 -0.7196,1.54056 -0.7196,1.54056z" fill="none" stroke="#000000" stroke-width="2"/><path d="M100.45203,73.9135c0.06414,0.60972 0.7093,2.04369 2.21757,2.378c1.52833,0.33876 3.91759,-0.4232 3.60618,0.03607c-0.69198,1.0205 -1.76519,1.72742 -3.02627,1.86008c-2.38869,0.25128 -4.54688,-1.65302 -4.82042,-4.25337c-0.27355,-2.60036 1.44113,-4.91206 3.82983,-5.16334c1.3247,-0.13935 2.57851,0.38425 3.4793,1.32186c0.43732,0.4552 -2.56445,0.66307 -4.24135,1.54194c-1.09737,0.57514 -1.09303,1.8206 -1.04483,2.27875z" fill="none" stroke="#000000" stroke-width="2"/><path d="M111.57043,70.45734c0,0 -0.81847,0.85494 -1.25688,0.90935c-0.32882,0.0408 -1.14073,-0.61183 -1.14073,-0.61183c0,0 -0.72913,-2.94397 -0.90443,-4.46183c-0.18091,-1.56647 -0.16476,-4.79576 -0.16476,-4.79576c0,0 0.73178,-0.44057 1.11104,-0.48765c0.41647,-0.05168 1.28659,0.19014 1.28659,0.19014c0,0 0.753,2.86993 0.92721,4.37828c0.18186,1.57464 0.14198,4.87932 0.14198,4.87932z" fill="none" stroke="#000000" stroke-width="2"/><path d="M110.31361,69.92028c0,0 -0.64453,-0.84834 -0.69075,-1.28766c-0.03466,-0.3295 0.43801,-1.11491 0.43801,-1.11491c0,0 2.1717,-0.61712 3.29408,-0.73519c1.15834,-0.12185 3.55148,0.01507 3.55148,0.01507c0,0 0.33633,0.74638 0.37631,1.12641c0.0439,0.41732 -0.12357,1.27616 -0.12357,1.27616c0,0 -2.1165,0.64369 -3.23186,0.76102c-1.16438,0.12249 -3.6137,-0.0409 -3.6137,-0.0409z" fill="none" stroke="#000000" stroke-width="2"/><path d="M109.63914,77.28516c0,0 -0.72246,-3.48103 -0.89492,-5.12044c-0.15176,-1.44268 -0.08571,-4.20152 -0.08571,-4.20152l2.75494,-0.28981c0,0 0.75136,2.83201 0.92026,4.43761c0.15712,1.49362 0.06037,4.88435 0.06037,4.88435c0,0 -0.73265,0.49813 -1.14146,0.54114c-0.49348,0.05191 -1.61349,-0.25133 -1.61349,-0.25133z" fill="none" stroke="#000000" stroke-width="2"/><path d="M112.01867,68.50043c0.09771,0.92883 -0.62624,1.76629 -1.617,1.87051c-0.99076,0.10422 -1.87313,-0.56425 -1.97084,-1.49309c-0.09771,-0.92883 0.62624,-1.76629 1.617,-1.87051c0.99076,-0.10422 1.87313,0.56425 1.97084,1.49309z" fill="none" stroke="#000000" stroke-width="2"/><path d="M115.62109,76.88261c0,0 -0.72246,-3.48103 -0.89492,-5.12044c-0.15176,-1.44268 -0.08571,-4.20152 -0.08571,-4.20152l2.75494,-0.28981c0,0 0.75136,2.83201 0.92026,4.43761c0.15712,1.49362 0.06037,4.88435 0.06037,4.88435c0,0 -0.73265,0.49813 -1.14146,0.54113c-0.49348,0.05191 -1.61349,-0.25133 -1.61349,-0.25133z" fill="none" stroke="#000000" stroke-width="2"/><path d="M118.00063,68.09787c0.09771,0.92883 -0.62624,1.76629 -1.617,1.87051c-0.99076,0.10422 -1.87313,-0.56425 -1.97084,-1.49309c-0.09771,-0.92883 0.62624,-1.76629 1.617,-1.87051c0.99076,-0.10422 1.87313,0.56425 1.97084,1.49309z" fill="none" stroke="#000000" stroke-width="2"/><path d="M197.83137,61.93443c0.3548,3.37282 -1.92607,6.37722 -5.09448,6.71053c-3.16841,0.3333 -6.02453,-2.13072 -6.37934,-5.50354c-0.3548,-3.37282 1.92606,-6.37722 5.09447,-6.71053c3.16841,-0.3333 6.02454,2.13071 6.37934,5.50353z" fill="none" stroke="#000000" stroke-width="2"/><path d="M204.2436,59.15002c0,0 -1.10696,0.7215 -1.67827,0.78812c-0.42849,0.04996 -1.44615,-0.4238 -1.44615,-0.4238c0,0 -0.78751,-2.29433 -0.93343,-3.488c-0.15059,-1.2319 0.04344,-3.79231 0.04344,-3.79231c0,0 0.97236,-0.38842 1.46658,-0.44606c0.54272,-0.06329 1.65785,0.08174 1.65785,0.08174c0,0 0.82242,2.23436 0.96744,3.42055c0.15138,1.23832 -0.07745,3.85976 -0.07745,3.85976z" fill="none" stroke="#000000" stroke-width="2"/><path d="M202.5654,58.05472c0,0 -0.83926,-1.10464 -0.89944,-1.6767c-0.04513,-0.42904 0.57034,-1.45175 0.57034,-1.45175c0,0 2.82782,-0.80357 4.28929,-0.95731c1.5083,-0.15867 4.62448,0.01963 4.62448,0.01963c0,0 0.43795,0.97187 0.49,1.46672c0.05716,0.54341 -0.16091,1.66172 -0.16091,1.66172c0,0 -2.75594,0.83817 -4.20829,0.99095c-1.51616,0.15949 -4.70549,-0.05326 -4.70549,-0.05326z" fill="none" stroke="#000000" stroke-width="2"/><path d="M201.68717,67.64472c0,0 -0.94073,-4.53273 -1.16529,-6.66745c-0.19761,-1.87855 -0.1116,-5.4709 -0.1116,-5.4709l3.58727,-0.37736c0,0 0.97836,3.68763 1.19829,5.77832c0.20459,1.94488 0.07861,6.36003 0.07861,6.36003c0,0 -0.954,0.64863 -1.48633,0.70463c-0.64257,0.0676 -2.10096,-0.32726 -2.10096,-0.32726z" fill="none" stroke="#000000" stroke-width="2"/><path d="M204.78561,56.20591c0.12723,1.20945 -0.81545,2.29992 -2.10553,2.43563c-1.29009,0.13571 -2.43904,-0.73472 -2.56627,-1.94418c-0.12723,-1.20945 0.81545,-2.29992 2.10553,-2.43563c1.29009,-0.13571 2.43904,0.73472 2.56627,1.94418z" fill="none" stroke="#000000" stroke-width="2"/><path d="M209.47641,67.12054c0,0 -0.94073,-4.53273 -1.16529,-6.66745c-0.19761,-1.87855 -0.1116,-5.4709 -0.1116,-5.4709l3.58727,-0.37736c0,0 0.97836,3.68763 1.19829,5.77832c0.20459,1.94488 0.07861,6.36003 0.07861,6.36003c0,0 -0.954,0.64863 -1.48632,0.70463c-0.64257,0.0676 -2.10096,-0.32726 -2.10096,-0.32726z" fill="none" stroke="#000000" stroke-width="2"/><path d="M212.57486,55.68173c0.12723,1.20945 -0.81545,2.29992 -2.10553,2.43563c-1.29009,0.13571 -2.43904,-0.73472 -2.56627,-1.94418c-0.12723,-1.20945 0.81545,-2.29992 2.10553,-2.43563c1.29009,-0.13571 2.43904,0.73472 2.56627,1.94418z" fill="none" stroke="#000000" stroke-width="2"/><path d="M178.82647,68.80465l-1.04715,-9.95432c0,0 1.08846,-0.95862 1.58193,-1.01053c0.6712,-0.07061 2.07869,0.62545 2.07869,0.62545l1.04715,9.95432c0,0 -1.11582,1.09136 -1.69687,1.15249c-0.63446,0.06674 -1.96376,-0.7674 -1.96376,-0.7674z" fill="none" stroke="#000000" stroke-width="2"/><path d="M180.8656,55.2761c0.09104,0.86543 -0.53673,1.6408 -1.40216,1.73184c-0.86543,0.09104 -1.6408,-0.53673 -1.73184,-1.40216c-0.09104,-0.86543 0.53673,-1.6408 1.40216,-1.73184c0.86543,-0.09104 1.6408,0.53673 1.73184,1.40216z" fill="none" stroke="#000000" stroke-width="2"/><path d="M147.85752,66.68044l-0.99986,-9.50477l3.08263,-0.32428l0.99986,9.50477z" data-paper-data="{&quot;index&quot;:null}" fill="none" stroke="#000000" stroke-width="2"/><path d="M145.86182,63.44898c2.71334,-0.28543 5.14735,1.71154 5.43651,4.46034c0.28916,2.74881 -1.67602,5.20855 -4.38936,5.49398c-2.71334,0.28543 -5.14735,-1.71154 -5.43651,-4.46034c-0.28916,-2.74881 1.67602,-5.20855 4.38936,-5.49398z" data-paper-data="{&quot;index&quot;:null}" fill="none" stroke="#000000" stroke-width="2"/><path d="M156.41344,70.63537l-1.0283,-9.77512c0,0 1.06886,-0.94136 1.55345,-0.99233c0.65912,-0.06934 2.04127,0.61419 2.04127,0.61419l1.0283,9.77512c0,0 -1.09573,1.07172 -1.66632,1.13174c-0.62304,0.06554 -1.9284,-0.75359 -1.9284,-0.75359z" fill="none" stroke="#000000" stroke-width="2"/><path d="M158.41585,57.35037c0.0894,0.84985 -0.52707,1.61127 -1.37692,1.70067c-0.84985,0.0894 -1.61127,-0.52707 -1.70067,-1.37692c-0.0894,-0.84985 0.52707,-1.61127 1.37692,-1.70067c0.84985,-0.0894 1.61127,0.52707 1.70067,1.37692z" fill="none" stroke="#000000" stroke-width="2"/><path d="M129.95477,71.87293l8.66061,-0.79833c0,0 0.82072,0.95645 0.86029,1.38578c0.05382,0.58395 -0.5667,1.79909 -0.5667,1.79909l-8.66061,0.79833c0,0 -0.93573,-0.98171 -0.98234,-1.48723c-0.05089,-0.552 0.68876,-1.69763 0.68876,-1.69763z" fill="none" stroke="#000000" stroke-width="2"/><path d="M127.39831,66.61922l8.66061,-0.79833c0,0 0.82072,0.95645 0.8603,1.38578c0.05382,0.58395 -0.5667,1.79909 -0.5667,1.79909l-8.66061,0.79833c0,0 -0.93573,-0.98171 -0.98234,-1.48723c-0.05089,-0.552 0.68876,-1.69763 0.68876,-1.69763z" fill="none" stroke="#000000" stroke-width="2"/><path d="M127.39366,60.07075l8.66061,-0.79833c0,0 0.82072,0.95645 0.8603,1.38578c0.05382,0.58395 -0.5667,1.79909 -0.5667,1.79909l-8.66061,0.79833c0,0 -0.93573,-0.98171 -0.98234,-1.48723c-0.05089,-0.552 0.68876,-1.69763 0.68876,-1.69763z" fill="none" stroke="#000000" stroke-width="2"/><path d="M125.74574,75.54068c0,0 -1.11721,-5.69259 -1.3924,-8.30853c-0.23809,-2.2633 -0.16359,-6.48288 -0.16359,-6.48288c0,0 1.10029,-1.48419 1.85449,-1.56353c0.90146,-0.09483 3.19166,1.0327 3.19166,1.0327c0,0 -0.34437,3.98857 -0.11997,6.12171c0.2813,2.67404 1.67595,8.66968 1.67595,8.66968c0,0 -1.85397,1.41686 -2.73326,1.50935c-0.79406,0.08353 -2.31288,-0.97852 -2.31288,-0.97852z" fill="none" stroke="#000000" stroke-width="2"/><path d="M167.27701,69.76111c0,0 -1.05998,-6.3225 -1.36471,-9.21932c-0.26365,-2.50633 -0.35835,-7.16036 -0.35835,-7.16036c0,0 0.78896,-1.59838 1.36349,-1.65882c0.6867,-0.07224 2.48051,1.25444 2.48051,1.25444c0,0 -0.1202,4.3894 0.12829,6.75159c0.3115,2.96118 1.59477,9.62809 1.59477,9.62809c0,0 -1.36837,1.49696 -2.03818,1.56742c-0.60489,0.06363 -1.80583,-1.16305 -1.80583,-1.16305z" fill="none" stroke="#000000" stroke-width="2"/><path d="M173.76673,58.72722l-10.23457,0.41333c0,0 -0.90723,-1.17473 -0.92772,-1.6821c-0.02787,-0.6901 0.77572,-2.08158 0.77572,-2.08158l10.23457,-0.41333c0,0 1.04098,1.21142 1.06511,1.80883c0.02634,0.65232 -0.91311,1.95485 -0.91311,1.95485z" fill="none" stroke="#000000" stroke-width="2"/><text transform="translate(171.25,346.71875) scale(0.5,0.5)" font-size="40" xml:space="preserve" fill="#006bff" fill-rule="nonzero" stroke="none" stroke-width="1" stroke-linecap="butt" stroke-linejoin="miter" stroke-miterlimit="10" stroke-dasharray="" stroke-dashoffset="0" font-family="Sans Serif" font-weight="normal" text-anchor="start" style="mix-blend-mode: normal"><tspan x="0" dy="0">yay_deadbody</tspan></text><text transform="translate(87.25,345.23763) scale(0.75839,0.75839)" font-size="40" xml:space="preserve" fill="#006bff" fill-rule="nonzero" stroke="none" stroke-width="1" stroke-linecap="butt" stroke-linejoin="miter" stroke-miterlimit="10" stroke-dasharray="" stroke-dashoffset="0" font-family="Sans Serif" font-weight="normal" text-anchor="start" style="mix-blend-mode: normal"><tspan x="0" dy="0">code:</tspan></text><text transform="translate(170.25,330.31662) scale(0.27483,0.27483)" font-size="40" xml:space="preserve" fill="#006bff" fill-rule="nonzero" stroke="none" stroke-width="1" stroke-linecap="butt" stroke-linejoin="miter" stroke-miterlimit="10" stroke-dasharray="" stroke-dashoffset="0" font-family="Sans Serif" font-weight="normal" text-anchor="start" style="mix-blend-mode: normal"><tspan x="0" dy="0">beu_se_v1.0</tspan></text></g></g></svg>