<svg version="1.1" xmlns="http://www.w3.org/2000/svg" xmlns:xlink="http://www.w3.org/1999/xlink" width="333.97282" height="106.40135" viewBox="0,0,333.97282,106.40135"><g transform="translate(-73.06366,-127.15708)"><g data-paper-data="{&quot;isPaintingLayer&quot;:true}" fill-rule="nonzero" stroke="#000000" stroke-width="2" stroke-linecap="butt" stroke-linejoin="miter" stroke-miterlimit="10" stroke-dasharray="" stroke-dashoffset="0" style="mix-blend-mode: normal"><path d="M315.32062,225.6616c0,0 -1.07451,-17.50731 -1.07451,-25.47696c0,-6.89535 1.07451,-19.58634 1.07451,-19.58634c0,0 2.60433,-4.12344 4.18496,-4.12344c1.88922,0 6.39055,4.12344 6.39055,4.12344c0,0 -1.5835,11.90939 -1.5835,18.4082c0,8.1467 1.5835,26.65509 1.5835,26.65509c0,0 -4.1519,3.68164 -5.99468,3.68164c-1.66415,0 -4.58084,-3.68164 -4.58084,-3.68164z" fill="#ffffff"/><path d="M222.2274,207.46377v-26.75969h8.67882v26.75969z" data-paper-data="{&quot;index&quot;:null}" fill="#ff6666"/><path d="M217.61678,197.88091c7.63912,0 13.83186,6.27369 13.83186,14.01267c0,7.73898 -6.19274,14.01267 -13.83186,14.01267c-7.63912,0 -13.83186,-6.27369 -13.83186,-14.01267c0,-7.73898 6.19274,-14.01267 13.83186,-14.01267z" data-paper-data="{&quot;index&quot;:null}" fill="#ff6666"/><path d="M253.42511,184.60024c0,3.7495 -2.85535,6.78908 -6.37761,6.78908c-3.52226,0 -6.37761,-3.03957 -6.37761,-6.78908c0,-3.7495 2.85535,-6.78908 6.37761,-6.78908c3.52226,0 6.37761,3.03957 6.37761,6.78908z" fill="#66aeff"/><path d="M241.93555,224.64061v-28.02535c0,0 3.3117,-2.35051 4.70103,-2.35051c1.88969,0 5.60507,2.35051 5.60507,2.35051v28.02535c0,0 -3.42677,2.71213 -5.06264,2.71213c-1.78625,0 -5.24345,-2.71213 -5.24345,-2.71213z" fill="#ffffff"/><path d="M336.13791,197.49536l-27.96717,-1.80488c0,0 -2.13236,-3.4562 -2.04288,-4.84264c0.1217,-1.88577 2.70661,-5.44206 2.70661,-5.44206l27.96717,1.80488c0,0 2.48581,3.59432 2.38045,5.2268c-0.11504,1.78254 -3.04419,5.0579 -3.04419,5.0579z" fill="#ffffff"/><path d="M261.41899,212.42083c0,0 8.63595,5.14581 12.74842,4.42793c4.72462,-0.82474 14.01845,-9.10043 14.01845,-9.10043c0,0 2.7971,2.77109 3.02875,4.09804c0.31505,1.80483 -1.31047,5.74527 -1.31047,5.74527c0,0 -9.50086,7.22826 -14.27078,8.06091c-4.02542,0.70268 -12.49608,-3.38841 -12.49608,-3.38841c0,0 -3.16167,-2.82071 -3.4344,-4.38312c-0.29782,-1.70604 1.71613,-5.46018 1.71613,-5.46018z" data-paper-data="{&quot;index&quot;:null}" fill="#ffffff"/><path d="M269.94664,187.77178c0,0 7.00796,-5.17242 11.32482,-5.92598c4.58881,-0.80104 15.44202,1.25346 15.44202,1.25346c0,0 2.7971,2.7711 3.02875,4.09804c0.31505,1.80483 -1.31047,5.74527 -1.31047,5.74527c0,0 -10.38697,-2.67535 -14.87269,-1.89231c-4.436,0.77436 -11.89415,6.56482 -11.89415,6.56482c0,0 -3.16167,-2.82071 -3.4344,-4.38312c-0.29782,-1.70604 1.71614,-5.46015 1.71614,-5.46015z" data-paper-data="{&quot;index&quot;:null}" fill="#ffffff"/><path d="M287.90023,214.90685c0,0 -8.57515,-4.24308 -12.37416,-6.69728c-3.2869,-2.12337 -9.10678,-7.17962 -9.10678,-7.17962c0,0 -1.40883,-4.05262 -1.07092,-5.74157c0.40388,-2.0187 3.33175,-5.55877 3.33175,-5.55877c0,0 5.33849,5.35943 8.43637,7.36069c3.88339,2.50871 13.04457,6.5162 13.04457,6.5162c0,0 0.86739,5.5702 0.47343,7.53927c-0.35577,1.7782 -2.73427,3.76107 -2.73427,3.76107z" data-paper-data="{&quot;index&quot;:null}" fill="#ffffff"/><path d="M386.34732,230.17504l-41.11436,-49.86676c0,0 2.44437,-9.04077 4.91645,-11.07898c3.3624,-2.77227 13.42165,-4.04052 13.42165,-4.04052l41.11435,49.86676c0,0 -2.11859,9.85304 -5.02937,12.25292c-3.17836,2.62052 -13.30873,2.86653 -13.30873,2.86653z" fill="#b9ff80"/><path d="M351.51322,228.97637c-2.91077,-2.39988 -5.02937,-12.25292 -5.02937,-12.25292l41.11439,-49.86676c0,0 10.05926,1.26826 13.42165,4.04049c2.47208,2.0382 4.91645,11.07897 4.91645,11.07897l-41.11436,49.86676c0,0 -10.13036,-0.24606 -13.30873,-2.86654z" data-paper-data="{&quot;index&quot;:null}" fill="#b9ff80"/><path d="M391.95882,195.9101c0,9.90232 -7.37401,17.92971 -16.47033,17.92971c-9.09629,0 -16.47034,-8.02741 -16.47034,-17.92971c0,-9.90232 7.37401,-17.92971 16.47034,-17.92971c9.09629,0 16.47033,8.02741 16.47033,17.92971z" fill="#b9ff80"/><path d="M108.25029,212.33448v-10.99319h3.56536v10.99319z" data-paper-data="{&quot;index&quot;:null}" fill="#ff6666"/><path d="M106.35618,208.39773c3.13824,0 5.68229,2.5773 5.68229,5.75657c0,3.17927 -2.54405,5.75657 -5.68229,5.75657c-3.13824,0 -5.68229,-2.5773 -5.68229,-5.75657c0,-3.17927 2.54405,-5.75657 5.68229,-5.75657z" data-paper-data="{&quot;index&quot;:null}" fill="#ff6666"/><path d="M77.19711,214.24342c0,0.95384 0.76484,3.27759 3.04412,4.04037c2.30961,0.77292 6.13047,-0.01716 5.57387,0.64277c-1.23678,1.46636 -3.0124,2.38549 -4.98523,2.38549c-3.73686,0 -6.76621,-3.29776 -6.76621,-7.36573c0,-4.06799 3.02933,-7.36573 6.76621,-7.36573c2.07236,0 3.92712,1.01423 5.16828,2.61159c0.60256,0.7755 -4.07583,0.60854 -6.8135,1.69546c-1.79154,0.71129 -1.98754,2.63906 -1.98754,3.35579z" fill="#b9ff80"/><path d="M93.13464,208.69484c3.13824,0 5.68229,2.5773 5.68229,5.75657c0,3.17927 -2.54405,5.75657 -5.68229,5.75657c-3.13824,0 -5.68229,-2.5773 -5.68229,-5.75657c0,-3.17927 2.54405,-5.75657 5.68229,-5.75657z" data-paper-data="{&quot;index&quot;:null}" fill="#ff6666"/><path d="M118.79137,216.15909l7.59444,0.0979c0,0 0.62539,0.90563 0.62053,1.28211c-0.0066,0.51207 -0.65653,1.51068 -0.65653,1.51068l-7.59444,-0.0979c0,0 -0.72297,-0.93808 -0.71726,-1.38137c0.00624,-0.48405 0.75326,-1.41142 0.75326,-1.41142z" fill="#ffffff"/><path d="M117.05113,211.36283l7.59444,0.0979c0,0 0.62539,0.90563 0.62054,1.28211c-0.0066,0.51207 -0.65653,1.51068 -0.65653,1.51068l-7.59444,-0.0979c0,0 -0.72297,-0.93808 -0.71726,-1.38137c0.00624,-0.48405 0.75326,-1.41142 0.75326,-1.41142z" fill="#ffffff"/><path d="M117.64536,205.67523l7.59444,0.0979c0,0 0.62539,0.90563 0.62054,1.28211c-0.0066,0.51207 -0.65653,1.51068 -0.65653,1.51068l-7.59444,-0.0979c0,0 -0.72297,-0.93808 -0.71726,-1.38137c0.00624,-0.48405 0.75326,-1.41142 0.75326,-1.41142z" fill="#ffffff"/><path d="M114.80085,218.95989c0,0 -0.4502,-5.04594 -0.4502,-7.34294c0,-1.98737 0.4502,-5.64515 0.4502,-5.64515c0,0 1.09117,-1.18846 1.75342,-1.18846c0.79155,0 2.67752,1.18846 2.67752,1.18846c0,0 -0.66346,3.43251 -0.66346,5.30559c0,2.34803 0.66346,7.6825 0.66346,7.6825c0,0 -1.73957,1.06112 -2.51166,1.06112c-0.69725,0 -1.91928,-1.06112 -1.91928,-1.06112z" fill="#ffffff"/><path d="M134.34412,209.34953c0,0 -1.40555,0.71896 -2.09276,0.72671c-0.51541,0.00581 -1.66544,-0.68435 -1.66544,-0.68435c0,0 -0.64898,-2.82472 -0.67316,-4.26136c-0.02496,-1.48265 0.52566,-4.50086 0.52566,-4.50086c0,0 1.20398,-0.34001 1.79845,-0.34672c0.65281,-0.00736 1.95976,0.30436 1.95976,0.30436c0,0 0.69796,2.75782 0.72201,4.18547c0.02509,1.49038 -0.5745,4.57676 -0.5745,4.57676z" fill="#af5218"/><path d="M132.48688,207.83825c0,0 -0.85919,-1.41752 -0.85919,-2.1048c0,-0.51546 0.85919,-1.65377 0.85919,-1.65377c0,0 3.46066,-0.60138 5.2165,-0.60138c1.8121,0 5.49267,0.60138 5.49267,0.60138c0,0 0.39891,1.20959 0.39891,1.80411c0,0.65286 -0.39891,1.95445 -0.39891,1.95445c0,0 -3.37957,0.65148 -5.12444,0.65148c-1.82155,0 -5.58473,-0.65148 -5.58473,-0.65148z" fill="#af5218"/><path d="M130.24454,219.12396c0,0 -0.55125,-5.50369 -0.55125,-8.06839c0,-2.25692 0.55125,-6.51485 0.55125,-6.51485h4.30982c0,0 0.7016,4.5042 0.7016,7.01599c0,2.33661 -0.7016,7.56725 -0.7016,7.56725c0,0 -1.21469,0.65149 -1.85423,0.65149c-0.772,0 -2.4556,-0.65149 -2.4556,-0.65149z" fill="#af5218"/><path d="M135.35618,205.91888c0,1.45306 -1.25646,2.631 -2.8064,2.631c-1.54994,0 -2.8064,-1.17793 -2.8064,-2.631c0,-1.45306 1.25646,-2.631 2.8064,-2.631c1.54994,0 2.8064,1.17793 2.8064,2.631z" fill="#af5218"/><path d="M139.56578,219.47476c0,0 -0.55125,-5.50369 -0.55125,-8.06839c0,-2.25692 0.55125,-6.51485 0.55125,-6.51485h4.30982c0,0 0.7016,4.5042 0.7016,7.01599c0,2.33661 -0.7016,7.56725 -0.7016,7.56725c0,0 -1.21469,0.65149 -1.85422,0.65149c-0.772,0 -2.4556,-0.65149 -2.4556,-0.65149z" fill="#af5218"/><path d="M144.67743,206.26967c0,1.45306 -1.25646,2.631 -2.8064,2.631c-1.54994,0 -2.8064,-1.17793 -2.8064,-2.631c0,-1.45306 1.25646,-2.631 2.8064,-2.631c1.54994,0 2.8064,1.17793 2.8064,2.631z" fill="#af5218"/><path d="M157.08439,220.34222v-12.41793h3.15082v12.41793z" fill="#66aeff"/><path d="M158.75247,214.04059c0,3.37793 -2.57239,6.11629 -5.7456,6.11629c-3.17321,0 -5.7456,-2.73835 -5.7456,-6.11629c0,-3.37793 2.57239,-6.11629 5.7456,-6.11629c3.17321,0 5.7456,2.73835 5.7456,6.11629z" fill="#66aeff"/><path d="M166.02006,212.22532c0,0 -1.18846,-1.20058 -1.18846,-1.78268c0,-0.43657 1.18846,-1.40067 1.18846,-1.40067c0,0 4.78687,-0.50934 7.21561,-0.50934c2.50654,0 7.59761,0.50934 7.59761,0.50934c0,0 0.55178,1.02448 0.55178,1.52801c0,0.55295 -0.55178,1.65535 -0.55178,1.65535c0,0 -4.67472,0.55178 -7.08827,0.55178c-2.51962,0 -7.72495,-0.55178 -7.72495,-0.55178z" fill="#af5218"/><path d="M189.90049,219.13021l7.59444,0.0979c0,0 0.62539,0.90563 0.62053,1.28211c-0.0066,0.51207 -0.65653,1.51068 -0.65653,1.51068l-7.59444,-0.0979c0,0 -0.72297,-0.93808 -0.71726,-1.38137c0.00624,-0.48405 0.75326,-1.41142 0.75326,-1.41142z" fill="#ffffff"/><path d="M188.16026,214.33396l7.59444,0.0979c0,0 0.62539,0.90563 0.62054,1.28211c-0.0066,0.51207 -0.65653,1.51068 -0.65653,1.51068l-7.59444,-0.0979c0,0 -0.72297,-0.93808 -0.71726,-1.38137c0.00624,-0.48405 0.75326,-1.41142 0.75326,-1.41142z" fill="#ffffff"/><path d="M188.75448,208.64636l7.59444,0.0979c0,0 0.62539,0.90563 0.62054,1.28211c-0.0066,0.51207 -0.65653,1.51068 -0.65653,1.51068l-7.59444,-0.0979c0,0 -0.72297,-0.93808 -0.71726,-1.38137c0.00624,-0.48405 0.75326,-1.41142 0.75326,-1.41142z" fill="#ffffff"/><path d="M185.90998,221.93103c0,0 -0.4502,-5.04594 -0.4502,-7.34294c0,-1.98737 0.4502,-5.64515 0.4502,-5.64515c0,0 1.09117,-1.18846 1.75342,-1.18846c0.79155,0 2.67752,1.18846 2.67752,1.18846c0,0 -0.66346,3.43251 -0.66346,5.30559c0,2.34803 0.66346,7.6825 0.66346,7.6825c0,0 -1.73957,1.06112 -2.51166,1.06112c-0.69725,0 -1.91928,-1.06112 -1.91928,-1.06112z" fill="#ffffff"/><path d="M163.60072,221.60561c0,0 -0.46689,-4.66141 -0.46689,-6.83361c0,-1.91152 0.46689,-5.51782 0.46689,-5.51782h3.65025c0,0 0.59422,3.81488 0.59422,5.94226c0,1.97902 -0.59422,6.40916 -0.59422,6.40916c0,0 -1.0288,0.55178 -1.57046,0.55178c-0.65385,0 -2.07979,-0.55178 -2.07979,-0.55178z" fill="#af5218"/><path d="M167.93008,210.42142c0,1.23069 -1.06417,2.22835 -2.3769,2.22835c-1.31273,0 -2.3769,-0.99767 -2.3769,-2.22835c0,-1.23069 1.06417,-2.22835 2.3769,-2.22835c1.31273,0 2.3769,0.99767 2.3769,2.22835z" fill="#af5218"/><path d="M171.49544,221.90273c0,0 -0.46689,-4.66141 -0.46689,-6.83361c0,-1.91152 0.46689,-5.51782 0.46689,-5.51782h3.65025c0,0 0.59422,3.81488 0.59422,5.94226c0,1.97902 -0.59422,6.40916 -0.59422,6.40916c0,0 -1.0288,0.55178 -1.57045,0.55178c-0.65385,0 -2.07979,-0.55178 -2.07979,-0.55178z" fill="#af5218"/><path d="M175.8248,210.71853c0,1.23069 -1.06417,2.22835 -2.3769,2.22835c-1.31273,0 -2.3769,-0.99767 -2.3769,-2.22835c0,-1.23069 1.06417,-2.22835 2.3769,-2.22835c1.31273,0 2.3769,0.99767 2.3769,2.22835z" fill="#af5218"/><path d="M179.34772,222.07251c0,0 -0.46689,-4.66141 -0.46689,-6.83361c0,-1.91152 0.46689,-5.51782 0.46689,-5.51782h3.65025c0,0 0.59422,3.81488 0.59422,5.94226c0,1.97902 -0.59422,6.40915 -0.59422,6.40915c0,0 -1.0288,0.55178 -1.57046,0.55178c-0.65385,0 -2.07979,-0.55178 -2.07979,-0.55178z" fill="#af5218"/><path d="M183.67708,210.88831c0,1.23069 -1.06417,2.22835 -2.3769,2.22835c-1.31273,0 -2.3769,-0.99767 -2.3769,-2.22835c0,-1.23069 1.06417,-2.22835 2.3769,-2.22835c1.31273,0 2.3769,0.99767 2.3769,2.22835z" fill="#af5218"/><path d="M291.26904,167.11436l-0.76713,-20.71249c0,0 3.78143,3.7396 4.56466,7.62094c0.42934,2.1276 0.51757,13.09156 0.51757,13.09156z" fill="#af5218"/><path d="M225.87125,148.41559c0,0 -2.68495,-2.71235 -2.68495,-4.02743c0,-0.98631 2.68495,-3.1644 2.68495,-3.1644c0,0 10.81448,-1.1507 16.3015,-1.1507c5.66278,0 17.16452,1.1507 17.16452,1.1507c0,0 1.24658,2.31449 1.24658,3.45208c0,1.24922 -1.24658,3.73976 -1.24658,3.73976c0,0 -10.56112,1.24658 -16.01382,1.24658c-5.69232,0 -17.45219,-1.24658 -17.45219,-1.24658z" fill="#af5218"/><path d="M198.60208,163.56763l17.15734,0.22117c0,0 1.41287,2.046 1.4019,2.89655c-0.01491,1.15688 -1.48323,3.41292 -1.48323,3.41292l-17.15734,-0.22117c0,0 -1.63334,-2.1193 -1.62044,-3.12079c0.0141,-1.09356 1.70177,-3.18868 1.70177,-3.18868z" fill="#ffffff"/><path d="M194.67055,152.73193l17.15734,0.22117c0,0 1.41287,2.04599 1.40191,2.89655c-0.01491,1.15688 -1.48324,3.41292 -1.48324,3.41292l-17.15734,-0.22117c0,0 -1.63334,-2.1193 -1.62044,-3.12079c0.0141,-1.09356 1.70177,-3.18868 1.70177,-3.18868z" fill="#ffffff"/><path d="M196.01302,139.88251l17.15734,0.22117c0,0 1.41287,2.046 1.40191,2.89655c-0.01491,1.15688 -1.48324,3.41292 -1.48324,3.41292l-17.15734,-0.22117c0,0 -1.63334,-2.1193 -1.62044,-3.12079c0.0141,-1.09356 1.70177,-3.18868 1.70177,-3.18868z" fill="#ffffff"/><path d="M123.63932,168.76699v-22.48648h5.70552v22.48648z" fill="#66aeff"/><path d="M74.80674,152.9929v-24.83581h8.05486v24.83581z" fill="#ff6666"/><path d="M99.97817,157.10423c0,7.18259 -5.74752,13.00524 -12.83743,13.00524c-7.08991,0 -12.83743,-5.82265 -12.83743,-13.00524c0,-7.18259 5.74752,-13.00524 12.83743,-13.00524c7.08991,0 12.83743,5.82265 12.83743,13.00524z" fill="#ff6666"/><path d="M126.65988,157.35594c0,6.11679 -4.65811,11.07543 -10.40419,11.07543c-5.74608,0 -10.40419,-4.95864 -10.40419,-11.07543c0,-6.11679 4.65811,-11.07543 10.40419,-11.07543c5.74608,0 10.40419,4.95864 10.40419,11.07543z" fill="#66aeff"/><path d="M140.25245,168.59918v-26.01048c0,0 3.07361,-2.18152 4.36305,-2.18152c1.75383,0 5.2021,2.18152 5.2021,2.18152v26.01048c0,0 -3.18041,2.51714 -4.69867,2.51714c-1.65783,0 -4.86648,-2.51714 -4.86648,-2.51714z" fill="#ffffff"/><path d="M155.35531,169.10261v-26.01048c0,0 3.07361,-2.18152 4.36305,-2.18152c1.75383,0 5.2021,2.18152 5.2021,2.18152v26.01048c0,0 -3.18041,2.51714 -4.69867,2.51714c-1.65783,0 -4.86648,-2.51714 -4.86648,-2.51714z" fill="#ffffff"/><path d="M170.15852,151.10054v-11.50694h9.87679c0,0 0,6.42269 0,8.53431c0,1.24624 -0.76712,6.42471 -0.76712,6.42471c0,0 -0.53378,-1.28584 -1.29917,-2.20869c-0.658,-0.79336 -1.51221,-1.24339 -2.05702,-1.24339c-1.75846,0 -5.75347,0 -5.75347,0z" fill="#ffffff"/><path d="M189.58672,169.89521c0,0 -1.01709,-11.39978 -1.01709,-16.58917c0,-4.48986 1.01709,-12.75352 1.01709,-12.75352c0,0 2.46516,-2.68495 3.96133,-2.68495c1.78827,0 6.04906,2.68495 6.04906,2.68495c0,0 -1.49888,7.75473 -1.49888,11.98639c0,5.30467 1.49888,17.35631 1.49888,17.35631c0,0 -3.93003,2.39728 -5.67434,2.39728c-1.57522,0 -4.33605,-2.39728 -4.33605,-2.39728z" fill="#ffffff"/><path d="M220.40548,169.60753c0,0 -1.0548,-10.53104 -1.0548,-15.43848c0,-4.31851 1.0548,-12.46585 1.0548,-12.46585h8.24664c0,0 1.34248,8.61858 1.34248,13.42476c0,4.471 -1.34248,14.47957 -1.34248,14.47957c0,0 -2.32426,1.24659 -3.54798,1.24659c-1.47717,0 -4.69867,-1.24659 -4.69867,-1.24659z" fill="#af5218"/><path d="M230.18637,144.34021c0,2.78036 -2.40419,5.03429 -5.36991,5.03429c-2.96572,0 -5.36991,-2.25393 -5.36991,-5.03429c0,-2.78036 2.40419,-5.03429 5.36991,-5.03429c2.96572,0 5.36991,2.25393 5.36991,5.03429z" fill="#af5218"/><path d="M238.24123,170.27877c0,0 -1.0548,-10.53104 -1.0548,-15.43848c0,-4.31851 1.0548,-12.46585 1.0548,-12.46585h8.24664c0,0 1.34248,8.61858 1.34248,13.42476c0,4.471 -1.34248,14.47957 -1.34248,14.47957c0,0 -2.32426,1.24659 -3.54797,1.24659c-1.47717,0 -4.69867,-1.24659 -4.69867,-1.24659z" fill="#af5218"/><path d="M248.02211,145.01145c0,2.78036 -2.40419,5.03429 -5.36991,5.03429c-2.96572,0 -5.36991,-2.25393 -5.36991,-5.03429c0,-2.78036 2.40419,-5.03429 5.36991,-5.03429c2.96572,0 5.36991,2.25393 5.36991,5.03429z" fill="#af5218"/><path d="M255.9811,170.66234c0,0 -1.0548,-10.53104 -1.0548,-15.43848c0,-4.31851 1.0548,-12.46585 1.0548,-12.46585h8.24664c0,0 1.34248,8.61858 1.34248,13.42476c0,4.471 -1.34248,14.47956 -1.34248,14.47956c0,0 -2.32426,1.24659 -3.54798,1.24659c-1.47717,0 -4.69867,-1.24659 -4.69867,-1.24659z" fill="#af5218"/><path d="M265.76199,145.39502c0,2.78036 -2.40419,5.03429 -5.36991,5.03429c-2.96572,0 -5.36991,-2.25393 -5.36991,-5.03429c0,-2.78036 2.40419,-5.03429 5.36991,-5.03429c2.96572,0 5.36991,2.25393 5.36991,5.03429z" fill="#af5218"/><path d="M293.76223,154.40879c0,6.54046 -5.02304,11.84256 -11.21927,11.84256c-6.19623,0 -11.21927,-5.3021 -11.21927,-11.84256c0,-3.51981 1.45475,-6.68097 3.7642,-8.85011c1.00453,-0.94349 -0.66199,4.54513 0.47079,8.86405c1.10222,4.20237 4.99765,7.22584 6.40892,7.22584c1.63668,0 4.76423,-0.72994 6.30511,-4.67044c1.64778,-4.21388 1.68761,-11.61739 2.75065,-10.32307c1.70629,2.07752 2.73885,4.78834 2.73885,7.75373z" fill="#af5218"/><path d="M299.93521,167.40204c0,0 0.08823,-10.96396 0.51756,-13.09156c0.78323,-3.88133 4.56466,-7.62093 4.56466,-7.62093l-0.76713,20.71249z" data-paper-data="{&quot;index&quot;:null}" fill="#66aeff"/><path d="M312.9884,139.8558c5.74607,0 10.40419,4.95864 10.40419,11.07543c0,6.11679 -4.65812,11.07543 -10.40419,11.07543c-5.74608,0 -10.40419,-4.95864 -10.40419,-11.07543c0,-6.11679 4.65811,-11.07543 10.40419,-11.07543z" data-paper-data="{&quot;index&quot;:null}" fill="#66aeff"/></g></g></svg>